<?xml version="1.0" encoding="UTF-8"?>
<svg version="1.1" xmlns="http://www.w3.org/2000/svg" width="1254" height="1254">
<path d="M0 0 C413.82 0 827.64 0 1254 0 C1254 413.82 1254 827.64 1254 1254 C840.18 1254 426.36 1254 0 1254 C0 840.18 0 426.36 0 0 Z " fill="#050404" transform="translate(0,0)"/>
<path d="M0 0 C3.42430953 0.02377482 6.84784441 0.02050933 10.2722168 0.01391602 C45.0770986 0.05796546 45.0770986 0.05796546 53.90698242 7.95336914 C58.13315971 12.65779744 58.75177302 16.81452143 58.69995117 23.01586914 C57.06447728 32.04283543 52.32663996 39.75772917 47.66088867 47.52368164 C46.40038709 49.65176696 45.14130613 51.78069429 43.88354492 53.91040039 C42.9324585 55.51794189 42.9324585 55.51794189 41.9621582 57.15795898 C39.11303079 62.01647886 36.35384216 66.92412033 33.59838867 71.83618164 C28.63809163 80.65699841 23.57896534 89.4153246 18.46728516 98.14916992 C14.17257221 105.48836374 9.90731256 112.84394518 5.66088867 120.21118164 C4.7250293 121.83443359 4.7250293 121.83443359 3.77026367 123.49047852 C0.64949019 128.90518137 -2.4685452 134.32145397 -5.58520508 139.73852539 C-13.23009917 153.01831227 -20.94021891 166.25792799 -28.69946289 179.47106934 C-29.05105469 180.06979858 -29.40264648 180.66852783 -29.76489258 181.28540039 C-30.11422852 181.88026245 -30.46356445 182.47512451 -30.82348633 183.0880127 C-34.27952786 188.97547065 -37.71602737 194.87426704 -41.15161133 200.77368164 C-48.92847875 214.11911589 -56.79241863 227.41238397 -64.67504883 240.69555664 C-71.61434667 252.3915341 -78.5318528 264.09923141 -85.40161133 275.83618164 C-92.91012828 288.66444766 -100.47847127 301.45624682 -108.06420898 314.23901367 C-110.82599493 318.89434406 -113.58398668 323.55190619 -116.33911133 328.21118164 C-116.85376953 329.0811377 -117.36842773 329.95109375 -117.89868164 330.84741211 C-120.95834648 336.02595582 -124.00076649 341.21430637 -127.03051758 346.41040039 C-134.9454177 359.9788485 -142.95213022 373.4707561 -151.3034668 386.77709961 C-152.92457451 389.37295219 -154.52620291 391.97999546 -156.12426758 394.59008789 C-164.16744066 407.67223207 -172.57554312 420.49461558 -181.08911133 433.27368164 C-181.63433441 434.09326355 -182.1795575 434.91284546 -182.74130249 435.75726318 C-201.85378219 464.45996512 -222.09209102 492.26198881 -244.96020508 518.10571289 C-246.57675646 519.96295804 -248.16697167 521.83661407 -249.74926758 523.72290039 C-250.52669312 524.64437866 -250.52669312 524.64437866 -251.31982422 525.58447266 C-252.34312212 526.79856294 -253.36214369 528.01627604 -254.37597656 529.23828125 C-257.88317509 533.38687633 -261.68414915 536.91573247 -265.90161133 540.33618164 C-264.27238576 536.90011156 -262.38291868 534.4991132 -259.77661133 531.71118164 C-256.59629838 528.22773709 -253.46895087 524.72275161 -250.46411133 521.08618164 C-249.50698242 519.93375977 -249.50698242 519.93375977 -248.53051758 518.75805664 C-246.70326031 516.04127126 -245.87515611 513.44812392 -244.90161133 510.33618164 C-243.62098648 508.62868184 -242.28393576 506.96244568 -240.90161133 505.33618164 C-240.22098633 504.30493164 -239.54036133 503.27368164 -238.83911133 502.21118164 C-236.90161133 499.33618164 -236.90161133 499.33618164 -235.46020508 497.95727539 C-233.56509436 495.98617026 -232.37687816 493.89942139 -231.02661133 491.52368164 C-229.23423749 488.44848662 -227.46795886 485.67144237 -225.08911133 483.02368164 C-222.75635655 480.58551068 -222.75635655 480.58551068 -222.42236328 477.93041992 C-221.85757145 475.11678747 -220.97124273 473.51175492 -219.38208008 471.14086914 C-218.59837036 469.95605957 -218.59837036 469.95605957 -217.79882812 468.74731445 C-217.23462158 467.91039062 -216.67041504 467.0734668 -216.08911133 466.21118164 C-214.91085309 464.4333139 -213.73380135 462.65464608 -212.55786133 460.87524414 C-211.95458008 459.96548828 -211.35129883 459.05573242 -210.72973633 458.1184082 C-207.79035756 453.64496264 -204.93768987 449.11779498 -202.08911133 444.58618164 C-201.56792725 443.75844238 -201.04674316 442.93070313 -200.50976562 442.07788086 C-199.30583648 440.16473765 -198.10305318 438.25088745 -196.90161133 436.33618164 C-201.49062397 442.30958327 -205.75576758 448.4656884 -209.96411133 454.71118164 C-216.75625017 464.7270921 -223.72392122 474.59326895 -230.90161133 484.33618164 C-231.42384277 485.04532715 -231.94607422 485.75447266 -232.48413086 486.48510742 C-238.74079238 494.95706476 -245.16146336 503.24061087 -251.90161133 511.33618164 C-253.3610479 513.12694976 -254.81936062 514.91863431 -256.27661133 516.71118164 C-257.81755036 518.58677968 -259.35931441 520.46170003 -260.90161133 522.33618164 C-262.06067993 523.75688965 -262.06067993 523.75688965 -263.24316406 525.20629883 C-269.98593319 533.34109412 -277.17583579 540.89065123 -284.68212891 548.32250977 C-286.60296467 550.22490197 -288.5154897 552.13536316 -290.42700195 554.04711914 C-296.41692337 560.01988009 -302.43189696 565.87922531 -308.90161133 571.33618164 C-309.96231562 572.27259847 -311.02096741 573.21134619 -312.07739258 574.15258789 C-325.52288394 585.98325505 -340.06385849 596.41669811 -355.08129883 606.15405273 C-357.01656619 607.41083446 -358.94352362 608.67980103 -360.87036133 609.94946289 C-362.15121562 610.78730773 -363.43245227 611.62456838 -364.71411133 612.46118164 C-365.30748291 612.85217041 -365.90085449 613.24315918 -366.51220703 613.64599609 C-370.67143588 616.33618164 -370.67143588 616.33618164 -372.90161133 616.33618164 C-373.23161133 617.32618164 -373.56161133 618.31618164 -373.90161133 619.33618164 C-375.97583008 620.43383789 -375.97583008 620.43383789 -378.58911133 621.39868164 C-379.48758789 621.73512695 -380.38606445 622.07157227 -381.31176758 622.41821289 C-384.16370095 623.42907917 -387.01609858 624.42496709 -389.90161133 625.33618164 C-389.90161133 626.32618164 -389.90161133 627.31618164 -389.90161133 628.33618164 C-392.482519 629.65364498 -395.06611591 630.96527782 -397.65161133 632.27368164 C-398.3812207 632.64686523 -399.11083008 633.02004883 -399.86254883 633.40454102 C-400.5715332 633.76225586 -401.28051758 634.1199707 -402.01098633 634.48852539 C-402.66035156 634.81844482 -403.3097168 635.14836426 -403.97875977 635.48828125 C-405.93454212 636.3507028 -407.81701827 636.87992343 -409.90161133 637.33618164 C-409.90161133 636.67618164 -409.90161133 636.01618164 -409.90161133 635.33618164 C-411.58577148 636.16762695 -411.58577148 636.16762695 -413.30395508 637.01586914 C-414.81543274 637.74813782 -416.32716529 638.47988054 -417.83911133 639.21118164 C-418.57452148 639.57598633 -419.30993164 639.94079102 -420.06762695 640.31665039 C-427.78973434 644.02595962 -435.43905591 645.41299378 -443.90161133 646.33618164 C-443.90161133 645.67618164 -443.90161133 645.01618164 -443.90161133 644.33618164 C-442.75563477 643.86567383 -441.6096582 643.39516602 -440.42895508 642.91040039 C-438.89899593 642.28152148 -437.36904864 641.65261369 -435.83911133 641.02368164 C-435.08694336 640.71495117 -434.33477539 640.4062207 -433.55981445 640.08813477 C-427.17806584 637.46360611 -420.82564328 634.77966741 -414.52661133 631.96118164 C-413.67325195 631.58219727 -412.81989258 631.20321289 -411.94067383 630.81274414 C-403.20284409 626.56737185 -394.86762887 621.46805586 -386.4543457 616.62133789 C-382.7962289 614.52263617 -379.16298734 612.46556422 -375.38208008 610.59399414 C-372.80893498 609.45074505 -372.80893498 609.45074505 -370.90161133 607.33618164 C-369.84973633 606.92368164 -368.79786133 606.51118164 -367.71411133 606.08618164 C-362.2877604 603.85246546 -358.39988913 599.90937333 -354.40161133 595.71118164 C-352.03473328 593.4626475 -349.76984805 592.15306636 -346.91723633 590.62133789 C-342.46967215 587.78558476 -338.750792 583.91822675 -334.90161133 580.33618164 C-331.00872636 576.76167389 -327.2018096 573.45553293 -322.71411133 570.64868164 C-305.42056051 559.47806333 -291.67335525 542.05628151 -279.18237305 525.98120117 C-278.05373631 524.53157205 -276.91769557 523.08771395 -275.78051758 521.64477539 C-275.18110352 520.88293945 -274.58168945 520.12110352 -273.96411133 519.33618164 C-273.20807617 518.37711914 -273.20807617 518.37711914 -272.43676758 517.39868164 C-270.48656728 514.77856521 -268.69602959 512.06462756 -266.90161133 509.33618164 C-275.68086762 518.86159533 -284.25323375 528.4868013 -292.47192383 538.50415039 C-294.83939394 541.26366138 -297.30289766 543.79420844 -299.90161133 546.33618164 C-301.15940072 547.59141178 -302.41579967 548.84803605 -303.67114258 550.10571289 C-307.41463216 553.84920247 -311.15812174 557.59269206 -314.90161133 561.33618164 C-314.90161133 557.15246348 -313.13297355 556.1356445 -310.27661133 553.14868164 C-306.14813193 548.76317914 -302.37260643 544.26047957 -298.90161133 539.33618164 C-303.2393259 543.01201061 -307.40793348 546.78693958 -311.40161133 550.83618164 C-314.73231353 554.20667039 -318.14966051 557.38191381 -321.74926758 560.46118164 C-324.2916421 562.67595436 -326.74570142 564.97683498 -329.21411133 567.27368164 C-333.70490676 571.37262096 -338.36004812 575.01534395 -343.32739258 578.51586914 C-345.69516871 580.19019945 -347.98682226 581.93262128 -350.27661133 583.71118164 C-352.38215085 585.3095163 -353.91073669 586.33960365 -356.40161133 587.27368164 C-359.08127525 588.41253881 -360.56423989 589.70336107 -362.71411133 591.64868164 C-367.51244229 595.97800281 -372.14701273 599.61128727 -378.46411133 601.27368164 C-381.78677636 602.3006872 -382.83016722 602.95595385 -385.27661133 605.21118164 C-388.37335644 608.04249146 -391.25626672 609.56611826 -395.12036133 611.14086914 C-398.7778354 612.71276109 -402.29402025 614.52781463 -405.83911133 616.33618164 C-411.13087596 619.02085628 -416.40783502 621.49337935 -421.98364258 623.54711914 C-424.16974039 624.37307726 -424.16974039 624.37307726 -426.90161133 626.33618164 C-428.3616735 626.94655754 -429.84345092 627.50663209 -431.33911133 628.02368164 C-432.48186523 628.43166992 -432.48186523 628.43166992 -433.64770508 628.84790039 C-436.14647771 629.38922895 -437.48221106 629.02657649 -439.90161133 628.33618164 C-430.08610606 623.12611659 -420.25543236 617.96500332 -410.29174805 613.04321289 C-405.9419089 610.88556785 -401.69050148 608.60610945 -397.50317383 606.14868164 C-395.90161133 605.33618164 -395.90161133 605.33618164 -393.90161133 605.33618164 C-393.70180664 604.7599707 -393.50200195 604.18375977 -393.29614258 603.59008789 C-391.37210825 600.48037415 -388.66485143 599.08279481 -385.58911133 597.27368164 C-378.04473498 592.63897133 -371.52057194 587.19004734 -364.90161133 581.33618164 C-363.74145508 580.34231445 -363.74145508 580.34231445 -362.55786133 579.32836914 C-358.12907443 575.52983268 -353.9692099 571.51818143 -349.90161133 567.33618164 C-352.76583981 568.76829588 -355.25206539 570.71284093 -357.83911133 572.58618164 C-363.84010643 576.89516383 -369.88414099 581.13937757 -375.96411133 585.33618164 C-376.77291748 585.89982422 -377.58172363 586.4634668 -378.41503906 587.04418945 C-382.12962036 589.59750273 -385.56875991 591.9412999 -389.90161133 593.33618164 C-389.90161133 593.99618164 -389.90161133 594.65618164 -389.90161133 595.33618164 C-391.39047852 596.17149414 -391.39047852 596.17149414 -392.90942383 597.02368164 C-394.28183191 597.79449316 -395.65422676 598.56532825 -397.02661133 599.33618164 C-397.74349121 599.73828857 -398.46037109 600.14039551 -399.19897461 600.5546875 C-402.81570778 602.58676133 -406.42378085 604.63126663 -410.01098633 606.71508789 C-410.96400635 607.26712891 -410.96400635 607.26712891 -411.9362793 607.83032227 C-413.69482039 608.85119993 -415.45062873 609.87678065 -417.20629883 610.90258789 C-419.90161133 612.33618164 -419.90161133 612.33618164 -421.90161133 612.33618164 C-421.90161133 612.99618164 -421.90161133 613.65618164 -421.90161133 614.33618164 C-427.17172372 617.46717812 -431.95005356 619.73383917 -437.90161133 621.33618164 C-438.65571289 621.80668945 -439.40981445 622.27719727 -440.18676758 622.76196289 C-443.25975298 624.54385227 -446.17433309 625.4369368 -449.58911133 626.39868164 C-454.20691724 627.56949313 -454.20691724 627.56949313 -457.90161133 630.33618164 C-460.4707779 630.64217227 -462.94919517 630.84705251 -465.52661133 630.96118164 C-466.5862207 631.01918945 -466.5862207 631.01918945 -467.66723633 631.07836914 C-469.41159657 631.17265888 -471.15656824 631.25551055 -472.90161133 631.33618164 C-469.62504111 627.72900253 -467.30032417 625.76978744 -462.58911133 624.52368164 C-455.24216692 622.28804702 -448.69691617 618.8904331 -441.90649414 615.36645508 C-439.96432806 614.36841065 -438.01127732 613.39770858 -436.05004883 612.43774414 C-431.00090504 609.96446302 -426.00988227 607.50898895 -421.27661133 604.46118164 C-417.90161133 602.33618164 -417.90161133 602.33618164 -415.87817383 601.89086914 C-413.45091533 601.20970174 -412.60877035 600.15862933 -410.90161133 598.33618164 C-409.57331017 597.40242538 -408.21756552 596.50667276 -406.83911133 595.64868164 C-405.80077148 594.99319336 -405.80077148 594.99319336 -404.74145508 594.32446289 C-402.90161133 593.33618164 -402.90161133 593.33618164 -400.90161133 593.33618164 C-400.57161133 592.34618164 -400.24161133 591.35618164 -399.90161133 590.33618164 C-397.88705687 588.77709167 -395.89857129 587.35736979 -393.77661133 585.96118164 C-392.5900745 585.16350846 -391.40387385 584.36533497 -390.21801758 583.56665039 C-388.57639648 582.46256836 -388.57639648 582.46256836 -386.90161133 581.33618164 C-385.50075571 580.3222512 -384.1035397 579.30321561 -382.71411133 578.27368164 C-379.90161133 576.33618164 -379.90161133 576.33618164 -377.90161133 576.33618164 C-377.57161133 575.34618164 -377.24161133 574.35618164 -376.90161133 573.33618164 C-374.81044793 571.566056 -372.71733038 569.91106441 -370.52661133 568.27368164 C-361.91671742 561.66839397 -353.76984576 554.79432936 -346.76879883 546.45336914 C-344.4715443 543.84853241 -342.00970881 541.45175203 -339.52661133 539.02368164 C-334.21067613 533.77391991 -329.51278686 528.22254646 -324.90161133 522.33618164 C-326.08955816 522.22278571 -326.08955816 522.22278571 -327.26513672 523.60205078 C-327.8373999 524.18591553 -328.40966309 524.76978027 -328.99926758 525.37133789 C-329.63219727 526.01264648 -330.26512695 526.65395508 -330.91723633 527.31469727 C-331.93043945 528.34626953 -331.93043945 528.34626953 -332.96411133 529.39868164 C-337.58149273 534.06388903 -342.1961122 538.6339114 -347.21801758 542.86743164 C-349.02324511 544.44229371 -350.67398585 546.11441924 -352.33911133 547.83618164 C-355.44653202 550.99248311 -358.77861759 553.64538636 -362.31176758 556.30883789 C-364.29121393 557.85835924 -366.19212904 559.43252243 -368.08520508 561.08227539 C-377.8803956 569.61623371 -377.8803956 569.61623371 -382.58911133 571.77368164 C-386.13095966 573.44436482 -386.484622 573.93680331 -387.90161133 577.33618164 C-388.23161133 576.67618164 -388.56161133 576.01618164 -388.90161133 575.33618164 C-390.13208628 575.93767932 -391.36092117 576.54253234 -392.58911133 577.14868164 C-393.27360352 577.48512695 -393.9580957 577.82157227 -394.66333008 578.16821289 C-398.00574784 579.91233665 -401.18789263 581.88148288 -404.36645508 583.90649414 C-411.23981607 588.22813343 -411.23981607 588.22813343 -414.96411133 588.83618164 C-418.88021505 589.50275249 -421.29140948 591.44325284 -424.46020508 593.76586914 C-426.87138675 595.31674119 -429.30255559 596.42379355 -431.95019531 597.51049805 C-434.0809719 598.41207273 -436.15361791 599.40128524 -438.23364258 600.41430664 C-438.96905273 600.77008789 -439.70446289 601.12586914 -440.4621582 601.49243164 C-441.98541213 602.23226009 -443.50619215 602.97720041 -445.0246582 603.72680664 C-446.95623458 604.65587609 -448.92665482 605.50329263 -450.90161133 606.33618164 C-451.56161133 606.00618164 -452.22161133 605.67618164 -452.90161133 605.33618164 C-452.41950195 605.02165039 -451.93739258 604.70711914 -451.44067383 604.38305664 C-450.49321289 603.74110352 -450.49321289 603.74110352 -449.52661133 603.08618164 C-448.90012695 602.66852539 -448.27364258 602.25086914 -447.62817383 601.82055664 C-445.78545973 600.45866062 -445.78545973 600.45866062 -445.08740234 598.41210938 C-443.5364123 595.69683897 -441.99031393 595.01691194 -439.20239258 593.63696289 C-438.2476001 593.15453125 -437.29280762 592.67209961 -436.30908203 592.17504883 C-435.2877417 591.67134766 -434.26640137 591.16764648 -433.21411133 590.64868164 C-431.10820322 589.58049336 -429.00403468 588.50886869 -426.90161133 587.43383789 C-425.87293945 586.90806152 -424.84426758 586.38228516 -423.78442383 585.84057617 C-417.64070385 582.6344784 -411.75605667 579.03815426 -405.90161133 575.33618164 C-404.4262793 574.40805664 -404.4262793 574.40805664 -402.92114258 573.46118164 C-388.88378983 564.36815962 -375.88442286 553.98843285 -363.90161133 542.33618164 C-363.3426416 541.81652832 -362.78367187 541.296875 -362.20776367 540.76147461 C-360.71533158 539.34412246 -359.30204503 537.84450061 -357.90161133 536.33618164 C-357.90161133 535.34618164 -357.90161133 534.35618164 -357.90161133 533.33618164 C-358.49586914 533.88145508 -359.09012695 534.42672852 -359.70239258 534.98852539 C-404.64596926 575.8780936 -404.64596926 575.8780936 -427.90161133 579.33618164 C-424.01318894 575.16084653 -419.8287199 572.05288312 -415.08911133 568.89868164 C-410.18942585 565.59644303 -405.35081769 562.29962225 -400.77270508 558.55493164 C-398.90161133 557.33618164 -398.90161133 557.33618164 -395.58129883 555.96899414 C-391.8043431 554.40295149 -388.81307505 552.24056787 -385.58911133 549.71118164 C-385.02861084 549.27241699 -384.46811035 548.83365234 -383.890625 548.3815918 C-379.53020361 544.93023791 -375.39608334 541.26209089 -371.30786133 537.49243164 C-368.84992491 535.28986524 -366.3121705 533.24580629 -363.71411133 531.21118164 C-359.45817694 527.86291099 -355.61620904 524.27217921 -351.90161133 520.33618164 C-354.63396454 522.15775045 -357.17550052 524.12214264 -359.73852539 526.17114258 C-370.98421595 535.14989182 -370.98421595 535.14989182 -376.90161133 538.33618164 C-377.56161133 538.00618164 -378.22161133 537.67618164 -378.90161133 537.33618164 C-377.88067383 536.59368164 -377.88067383 536.59368164 -376.83911133 535.83618164 C-373.88344607 533.32072185 -371.50093035 530.68385631 -368.98754883 527.74243164 C-366.51388759 524.8889198 -363.96177008 522.11171331 -361.40161133 519.33618164 C-354.63791377 511.97004948 -348.24863131 504.60089896 -342.30004883 496.55102539 C-340.67026556 494.35034616 -339.00825019 492.18033741 -337.31567383 490.02758789 C-332.36115898 483.71982082 -327.80509632 477.3656282 -323.90161133 470.33618164 C-326.2151402 472.64971051 -328.2714003 475.22826089 -330.40161133 477.71118164 C-330.94406494 478.34314453 -331.48651855 478.97510742 -332.04541016 479.6262207 C-335.9340144 484.17085145 -339.74010474 488.77396636 -343.47583008 493.44555664 C-350.1497645 501.39839314 -357.27171008 508.91638622 -364.59545898 516.27026367 C-366.03940131 517.72405889 -367.47231264 519.18821573 -368.90551758 520.65258789 C-373.68736966 525.46096898 -377.87534705 529.26464215 -383.90161133 532.33618164 C-387.17598247 534.4575652 -390.37913858 536.68138112 -393.58911133 538.89868164 C-394.43022461 539.47553711 -395.27133789 540.05239258 -396.13793945 540.64672852 C-399.7768038 543.14862811 -403.38234462 545.66757395 -406.90161133 548.33618164 C-407.56161133 548.00618164 -408.22161133 547.67618164 -408.90161133 547.33618164 C-402.30199123 541.03654427 -395.82109569 534.98939704 -388.22192383 529.89477539 C-376.93800653 522.31517438 -366.45839446 512.90011144 -357.90161133 502.33618164 C-357.46880859 501.80508789 -357.03600586 501.27399414 -356.59008789 500.72680664 C-350.59112705 493.3533344 -344.72853931 485.89219919 -339.06958008 478.25415039 C-337.54488834 476.20199773 -336.00920806 474.16431528 -334.45239258 472.13696289 C-333.65188477 471.08895508 -332.85137695 470.04094727 -332.02661133 468.96118164 C-331.30731445 468.02532227 -330.58801758 467.08946289 -329.84692383 466.12524414 C-327.87659717 463.30031796 -326.36236714 460.45062328 -324.90161133 457.33618164 C-330.94618715 464.42930633 -336.9295382 471.56758299 -342.83911133 478.77368164 C-365.34983066 506.16372322 -365.34983066 506.16372322 -379.32348633 517.19555664 C-382.01843928 519.43318424 -384.46130304 521.82564865 -386.90161133 524.33618164 C-387.56161133 524.00618164 -388.22161133 523.67618164 -388.90161133 523.33618164 C-384.35288348 517.63222132 -379.81239156 512.07903724 -374.57348633 506.99633789 C-365.88706383 498.37080153 -358.4730862 488.36767378 -350.90161133 478.77368164 C-350.42046875 478.16572754 -349.93932617 477.55777344 -349.44360352 476.93139648 C-346.942411 473.78480089 -346.942411 473.78480089 -344.90161133 470.33618164 C-345.92599588 471.33254351 -346.94583846 472.33357451 -347.96411133 473.33618164 C-348.81682617 474.17149414 -348.81682617 474.17149414 -349.68676758 475.02368164 C-351.56925889 476.98917521 -353.34531325 478.99381475 -355.12036133 481.05493164 C-358.99930876 485.51698881 -363.13511801 489.68219007 -367.33911133 493.83618164 C-368.0706543 494.56321289 -368.80219727 495.29024414 -369.5559082 496.03930664 C-371.33550957 497.80727663 -373.11742051 499.57284542 -374.90161133 501.33618164 C-374.90161133 497.9522634 -374.34364422 497.104096 -372.55004883 494.32836914 C-372.03547119 493.51916016 -371.52089355 492.70995117 -370.99072266 491.8762207 C-370.42506592 490.99675781 -369.85940918 490.11729492 -369.27661133 489.21118164 C-364.17205707 481.13268198 -359.34571875 472.94462627 -354.71411133 464.58618164 C-346.94986161 450.58993224 -338.82174138 436.84262773 -330.57299805 423.12792969 C-326.26015856 415.95198502 -322.0008504 408.74517307 -317.74902344 401.53295898 C-314.24551348 395.59545896 -310.70989099 389.6784861 -307.15161133 383.77368164 C-300.27108222 372.34605058 -293.54801545 360.82615214 -286.81376648 349.31201172 C-284.12234187 344.71089412 -281.42082436 340.11581561 -278.71411133 335.52368164 C-271.82982628 323.83476988 -265.01257549 312.10654389 -258.18237305 300.38598633 C-256.48490696 297.47338353 -254.78711629 294.56097031 -253.08911133 291.64868164 C-252.51894287 290.67068604 -251.94877441 289.69269043 -251.36132812 288.68505859 C-248.17138588 283.21664923 -244.97442083 277.75244008 -241.76879883 272.29321289 C-234.24892997 259.48569749 -226.76081712 246.66202874 -219.3527832 233.78930664 C-215.25057666 226.66373472 -211.11655151 219.55757736 -206.96411133 212.46118164 C-201.91310064 203.82343883 -196.92136705 195.15298393 -191.96411133 186.46118164 C-181.48370942 168.08599603 -170.91469148 149.76370492 -160.234375 131.50390625 C-156.14305021 124.49633319 -152.10658156 117.4588189 -148.09112549 110.40753174 C-116.18820337 54.40786635 -116.18820337 54.40786635 -103.87426758 41.44946289 C-101.82800522 39.31334254 -101.82800522 39.31334254 -99.85864258 36.76586914 C-82.4110936 15.10444107 -52.60158058 3.70957897 -25.84780884 0.60348511 C-17.25762189 -0.17588788 -8.61742565 -0.06388792 0 0 Z " fill="#FCFBFC" transform="translate(844.901611328125,286.663818359375)"/>
<path d="M0 0 C11.73757143 8.55857329 19.94789907 20.00958838 24 34 C24.22429687 34.70125 24.44859375 35.4025 24.6796875 36.125 C28.95674331 51.59270867 25.29297773 66.88741015 18.25 80.875 C14.90051073 86.59489706 10.6680444 91.32394867 6 96 C5.36191406 96.6496875 4.72382812 97.299375 4.06640625 97.96875 C-5.10931998 106.66756738 -18.36831687 112.30166305 -31 113 C-32.63775391 113.09667969 -32.63775391 113.09667969 -34.30859375 113.1953125 C-52.59087502 113.76603928 -67.5960984 107.63677043 -81 95.14453125 C-86.87642702 88.84344055 -91.85300839 81.16136931 -95.125 73.1875 C-95.62386719 72.00220703 -95.62386719 72.00220703 -96.1328125 70.79296875 C-100.84634055 55.6120113 -98.87502309 37.99303048 -92.25 23.875 C-83.04723748 6.39426238 -68.63449016 -4.11065546 -50 -10 C-49.39671875 -10.19335938 -48.7934375 -10.38671875 -48.171875 -10.5859375 C-31.46957655 -13.77018864 -14.15210791 -8.86360193 0 0 Z " fill="#FCFBFC" transform="translate(823,781)"/>
<path d="M0 0 C0 3.78140879 -0.97458151 4.51916614 -3.375 7.375 C-6.21799418 10.81467197 -8.9946766 14.27914255 -11.68286133 17.83959961 C-15.86598159 23.37557955 -20.22367552 28.63834904 -24.9296875 33.74609375 C-26.77315157 35.75303483 -28.54779093 37.79912242 -30.3125 39.875 C-38.52767449 49.26920416 -47.70317144 59.11423233 -58.52734375 65.48828125 C-61.01360582 67.00831825 -62.9877711 68.65029802 -65.125 70.625 C-78.79093713 82.96989654 -78.79093713 82.96989654 -84.875 86.25 C-88.24066466 88.13477221 -90.34826608 90.21567938 -93 93 C-96.79959805 96.56212317 -100.03180304 99.25441729 -105 101 C-105.59425781 101.45503906 -106.18851562 101.91007813 -106.80078125 102.37890625 C-109.26017413 104.19178022 -111.74453476 105.4315247 -114.5 106.75 C-121.77437601 110.32524076 -128.74812034 114.34890241 -135.625 118.63671875 C-140.47152187 121.64307685 -145.21224396 124.05112017 -150.55078125 126.0625 C-152.99664836 126.99871708 -155.36715831 128.03935019 -157.75 129.125 C-161.11532906 130.63195266 -164.42893985 132.04191069 -168 133 C-168.66 132.67 -169.32 132.34 -170 132 C-170 131.34 -170 130.68 -170 130 C-170.60996826 130.15146484 -171.21993652 130.30292969 -171.84838867 130.45898438 C-174.62665473 131.14530188 -177.40701613 131.82272612 -180.1875 132.5 C-181.14720703 132.73847656 -182.10691406 132.97695313 -183.09570312 133.22265625 C-184.49272461 133.56103516 -184.49272461 133.56103516 -185.91796875 133.90625 C-186.77156982 134.11572266 -187.6251709 134.32519531 -188.50463867 134.54101562 C-191.05946307 135.01093734 -193.40844759 135.08117627 -196 135 C-193.94766315 132.7522025 -192.99332739 131.9977758 -190 131 C-190.33 130.34 -190.66 129.68 -191 129 C-190.34 128.67 -189.68 128.34 -189 128 C-189.7425 127.319375 -189.7425 127.319375 -190.5 126.625 C-192 125 -192 125 -192 123 C-194.31 123 -196.62 123 -199 123 C-199 122.67 -199 122.34 -199 122 C-197.7625 121.896875 -196.525 121.79375 -195.25 121.6875 C-192.60115818 121.46676318 -191.29585126 121.22947438 -189.171875 119.58203125 C-185.38798095 116.82577749 -180.79602575 116.20237943 -176.3125 115.0625 C-173.1971186 114.06322672 -171.48013255 113.0463874 -169 111 C-167.00882592 110.30741771 -165.0078864 109.64252365 -163 109 C-161.9275 108.46375 -160.855 107.9275 -159.75 107.375 C-157 106 -157 106 -155 106 C-155 105.34 -155 104.68 -155 104 C-154.51756836 103.73372803 -154.03513672 103.46745605 -153.53808594 103.19311523 C-151.27458241 101.94269905 -149.0121328 100.6903943 -146.75 99.4375 C-145.93402344 98.98584473 -145.11804688 98.53418945 -144.27734375 98.06884766 C-138.51842117 94.87083179 -132.8294191 91.58051096 -127.1875 88.1796875 C-125 87 -125 87 -123 87 C-123 86.34 -123 85.68 -123 85 C-120.98557903 83.57949646 -118.97649437 82.28049033 -116.875 81 C-111.77966739 77.81435979 -106.80679475 74.52191217 -101.9375 71 C-95.35306786 66.24167524 -88.69378076 61.60336418 -82 57 C-81.67 57.66 -81.34 58.32 -81 59 C-81.49628906 59.42410156 -81.99257813 59.84820313 -82.50390625 60.28515625 C-85.84192491 63.16712682 -89.09209446 66.04644504 -92.125 69.25 C-101.1207484 78.38951606 -112.59563744 87.09014884 -123.62109375 93.53125 C-125.96273925 94.84447096 -125.96273925 94.84447096 -127.41943359 96.4543457 C-129.07777658 98.07605862 -130.64262914 99.07824544 -132.66796875 100.19921875 C-133.38863525 100.59995605 -134.10930176 101.00069336 -134.85180664 101.41357422 C-135.62258545 101.83396973 -136.39336426 102.25436523 -137.1875 102.6875 C-138.38330688 103.34516357 -138.38330688 103.34516357 -139.60327148 104.01611328 C-150.18065346 109.79206516 -160.91905168 115.25102215 -172 120 C-160.85943705 118.20313501 -150.74575026 112.9065445 -140.75 107.9375 C-140.06413818 107.5969458 -139.37827637 107.2563916 -138.67163086 106.90551758 C-135.79895011 105.4644426 -133.00742714 104.00450707 -130.2578125 102.3359375 C-128.19560321 101.11573754 -126.4023 100.38202925 -124.125 99.6875 C-120.19328401 98.30288439 -117.66897059 96.22810466 -114.73828125 93.3046875 C-112.5494362 91.66182403 -110.66836782 91.53367356 -108 91 C-105.51566592 89.60333291 -105.51566592 89.60333291 -103.125 87.8125 C-101.81982422 86.87083984 -101.81982422 86.87083984 -100.48828125 85.91015625 C-98.34185351 84.26242757 -96.32160886 82.55955854 -94.3125 80.75 C-91.68446582 78.41532778 -89.24741126 77.21825484 -85.94140625 75.9609375 C-82.41472771 74.21533806 -79.53704166 71.59213069 -76.5234375 69.08984375 C-74.30967211 67.25646219 -72.05374842 65.52960616 -69.75 63.8125 C-64.28089195 59.58681261 -59.32686441 54.80744937 -54.296875 50.078125 C-51.8088129 47.74187686 -49.28073195 45.46980655 -46.6875 43.25 C-42.85527076 39.96404965 -39.37377131 36.3656603 -35.8828125 32.72265625 C-34 31 -34 31 -32 31 C-33.35153828 33.95399506 -34.8967985 36.23557476 -37.0390625 38.671875 C-37.61914062 39.33574219 -38.19921875 39.99960937 -38.796875 40.68359375 C-39.40015625 41.36550781 -40.0034375 42.04742188 -40.625 42.75 C-41.23601562 43.44738281 -41.84703125 44.14476562 -42.4765625 44.86328125 C-43.98063803 46.5788674 -45.48852498 48.29093409 -47 50 C-45.23261646 50 -44.2839084 48.4142034 -43.0859375 47.21875 C-42.49345215 46.62827881 -41.9009668 46.03780762 -41.29052734 45.42944336 C-40.65840332 44.79272705 -40.0262793 44.15601074 -39.375 43.5 C-38.73127441 42.85361572 -38.08754883 42.20723145 -37.42431641 41.54125977 C-33.75666191 37.83684496 -30.19643285 34.09010246 -26.828125 30.109375 C-24.33455568 27.23217964 -21.72404114 24.46925478 -19.125 21.6875 C-14.50678927 16.73066852 -10.15165617 11.64744575 -5.9375 6.33984375 C-4.07021732 4.08479874 -2.1039823 2.03353646 0 0 Z " fill="#0F0F0F" transform="translate(578,795)"/>
<path d="M0 0 C0.495 0.99 0.495 0.99 1 2 C0.50371094 2.42410156 0.00742187 2.84820313 -0.50390625 3.28515625 C-3.84192491 6.16712682 -7.09209446 9.04644504 -10.125 12.25 C-19.1207484 21.38951606 -30.59563744 30.09014884 -41.62109375 36.53125 C-43.96273925 37.84447096 -43.96273925 37.84447096 -45.41943359 39.4543457 C-47.07777658 41.07605862 -48.64262914 42.07824544 -50.66796875 43.19921875 C-51.38863525 43.59995605 -52.10930176 44.00069336 -52.85180664 44.41357422 C-53.62258545 44.83396973 -54.39336426 45.25436523 -55.1875 45.6875 C-55.98470459 46.12594238 -56.78190918 46.56438477 -57.60327148 47.01611328 C-68.18065346 52.79206516 -78.91905168 58.25102215 -90 63 C-85.31261335 62.09276387 -80.65806256 61.0452733 -76 60 C-76 60.66 -76 61.32 -76 62 C-73.69 61.67 -71.38 61.34 -69 61 C-72.15588817 64.60672933 -75.21067068 66.19903194 -79.625 68 C-80.24745605 68.25563721 -80.86991211 68.51127441 -81.51123047 68.7746582 C-83.33818545 69.52290478 -85.16902696 70.26164022 -87 71 C-87.8971875 71.38542969 -88.794375 71.77085937 -89.71875 72.16796875 C-97.38153292 75.41469983 -105.59358494 78.30624463 -114 78 C-111.94766315 75.7522025 -110.99332739 74.9977758 -108 74 C-108.33 73.34 -108.66 72.68 -109 72 C-108.01 71.505 -108.01 71.505 -107 71 C-107.7425 70.319375 -107.7425 70.319375 -108.5 69.625 C-110 68 -110 68 -110 66 C-112.31 66 -114.62 66 -117 66 C-117 65.67 -117 65.34 -117 65 C-115.7625 64.896875 -114.525 64.79375 -113.25 64.6875 C-110.60115818 64.46676318 -109.29585126 64.22947438 -107.171875 62.58203125 C-103.38798095 59.82577749 -98.79602575 59.20237943 -94.3125 58.0625 C-91.1971186 57.06322672 -89.48013255 56.0463874 -87 54 C-85.00882592 53.30741771 -83.0078864 52.64252365 -81 52 C-79.9275 51.46375 -78.855 50.9275 -77.75 50.375 C-75 49 -75 49 -73 49 C-73 48.34 -73 47.68 -73 47 C-72.51756836 46.73372803 -72.03513672 46.46745605 -71.53808594 46.19311523 C-69.27458241 44.94269905 -67.0121328 43.6903943 -64.75 42.4375 C-63.93402344 41.98584473 -63.11804688 41.53418945 -62.27734375 41.06884766 C-56.51842117 37.87083179 -50.8294191 34.58051096 -45.1875 31.1796875 C-43 30 -43 30 -41 30 C-41 29.34 -41 28.68 -41 28 C-38.98557903 26.57949646 -36.97649437 25.28049033 -34.875 24 C-29.77966739 20.81435979 -24.80679475 17.52191217 -19.9375 14 C-13.35306786 9.24167524 -6.69378076 4.60336418 0 0 Z " fill="#171717" transform="translate(496,852)"/>
<path d="M0 0 C1.125 2.0625 1.125 2.0625 2 4 C0.71186658 4.83878455 -0.58063256 5.67086783 -1.875 6.5 C-2.59429687 6.9640625 -3.31359375 7.428125 -4.0546875 7.90625 C-6 9 -6 9 -8 9 C-8.33 9.99 -8.66 10.98 -9 12 C-11.07421875 13.09765625 -11.07421875 13.09765625 -13.6875 14.0625 C-14.58597656 14.39894531 -15.48445313 14.73539063 -16.41015625 15.08203125 C-19.26208962 16.09289753 -22.11448726 17.08878545 -25 18 C-25 18.99 -25 19.98 -25 21 C-27.58090767 22.31746333 -30.16450458 23.62909617 -32.75 24.9375 C-33.47960937 25.31068359 -34.20921875 25.68386719 -34.9609375 26.06835938 C-36.02441406 26.60493164 -36.02441406 26.60493164 -37.109375 27.15234375 C-37.75874023 27.48226318 -38.40810547 27.81218262 -39.07714844 28.15209961 C-41.03293079 29.01452116 -42.91540694 29.54374179 -45 30 C-45 29.34 -45 28.68 -45 28 C-46.12277344 28.55429687 -47.24554688 29.10859375 -48.40234375 29.6796875 C-49.91382141 30.41195618 -51.42555396 31.1436989 -52.9375 31.875 C-53.67291016 32.23980469 -54.40832031 32.60460937 -55.16601562 32.98046875 C-62.88812302 36.68977798 -70.53744458 38.07681214 -79 39 C-79 38.34 -79 37.68 -79 37 C-77.85402344 36.52949219 -76.70804687 36.05898438 -75.52734375 35.57421875 C-73.9973846 34.94533983 -72.46743731 34.31643205 -70.9375 33.6875 C-69.80924805 33.2244043 -69.80924805 33.2244043 -68.65820312 32.75195312 C-62.27645451 30.12742447 -55.92403195 27.44348577 -49.625 24.625 C-48.77164062 24.24601563 -47.91828125 23.86703125 -47.0390625 23.4765625 C-38.30123276 19.23119021 -29.96601754 14.13187422 -21.55273438 9.28515625 C-17.89461757 7.18645453 -14.26137601 5.12938257 -10.48046875 3.2578125 C-7.90732365 2.11456341 -7.90732365 2.11456341 -6 0 C-2.44444444 -1.22222222 -2.44444444 -1.22222222 0 0 Z " fill="#ECECED" transform="translate(480,894)"/>
<path d="M0 0 C0.495 0.99 0.495 0.99 1 2 C0.50371094 2.42410156 0.00742187 2.84820313 -0.50390625 3.28515625 C-3.84192491 6.16712682 -7.09209446 9.04644504 -10.125 12.25 C-19.1207484 21.38951606 -30.59563744 30.09014884 -41.62109375 36.53125 C-43.96147798 37.84324918 -43.96147798 37.84324918 -45.41064453 39.44775391 C-47.10809777 41.10557383 -48.74230994 42.14543615 -50.80859375 43.3046875 C-51.55061035 43.72121582 -52.29262695 44.13774414 -53.05712891 44.56689453 C-53.84265137 44.99856934 -54.62817383 45.43024414 -55.4375 45.875 C-56.23849121 46.31827637 -57.03948242 46.76155273 -57.86474609 47.21826172 C-64.08507868 50.61083036 -70.3542087 53.52411697 -77 56 C-77 55.34 -77 54.68 -77 54 C-76.34 54 -75.68 54 -75 54 C-75.495 52.515 -75.495 52.515 -76 51 C-75.67 50.34 -75.34 49.68 -75 49 C-74.34 49 -73.68 49 -73 49 C-73 48.34 -73 47.68 -73 47 C-72.27635254 46.60059204 -72.27635254 46.60059204 -71.53808594 46.19311523 C-69.27458241 44.94269905 -67.0121328 43.6903943 -64.75 42.4375 C-63.93402344 41.98584473 -63.11804688 41.53418945 -62.27734375 41.06884766 C-56.51842117 37.87083179 -50.8294191 34.58051096 -45.1875 31.1796875 C-43 30 -43 30 -41 30 C-41 29.34 -41 28.68 -41 28 C-38.98557903 26.57949646 -36.97649437 25.28049033 -34.875 24 C-29.77966739 20.81435979 -24.80679475 17.52191217 -19.9375 14 C-13.35306786 9.24167524 -6.69378076 4.60336418 0 0 Z " fill="#141414" transform="translate(496,852)"/>
<path d="M0 0 C0.66 1.32 1.32 2.64 2 4 C-10.42028764 20.38906921 -41.15759587 42.90075775 -62 46 C-58.11157761 41.82466489 -53.92710857 38.71670148 -49.1875 35.5625 C-44.28781452 32.26026139 -39.44920636 28.96344061 -34.87109375 25.21875 C-33 24 -33 24 -29.6796875 22.6328125 C-25.90273178 21.06676985 -22.91146372 18.90438623 -19.6875 16.375 C-19.1320752 15.94058594 -18.57665039 15.50617187 -18.00439453 15.05859375 C-13.50457715 11.49897897 -9.22455873 7.72051975 -5.0234375 3.8125 C-3 2 -3 2 0 0 Z " fill="#EDEDED" transform="translate(479,820)"/>
<path d="M0 0 C0.495 0.99 0.495 0.99 1 2 C0.23413086 3.63793945 0.23413086 3.63793945 -1.03515625 5.61328125 C-1.50848389 6.35690918 -1.98181152 7.10053711 -2.46948242 7.86669922 C-2.99517822 8.67381348 -3.52087402 9.48092773 -4.0625 10.3125 C-4.59528564 11.14539551 -5.12807129 11.97829102 -5.67700195 12.83642578 C-8.68634723 17.51627718 -11.76277411 22.14720624 -14.8828125 26.75390625 C-15.51695068 27.69258545 -16.15108887 28.63126465 -16.80444336 29.59838867 C-18.04193117 31.42309357 -19.28732457 33.24246657 -20.54125977 35.0559082 C-21.10901123 35.89081787 -21.6767627 36.72572754 -22.26171875 37.5859375 C-22.76662842 38.3186084 -23.27153809 39.0512793 -23.79174805 39.80615234 C-25.11845308 42.21507768 -25.53542262 44.30550739 -26 47 C-27.19921875 48.88671875 -27.19921875 48.88671875 -28.6875 50.6875 C-31.70068876 54.49553471 -34.12543562 58.47676149 -36.5078125 62.703125 C-38.09750728 65.15008974 -39.91714358 66.96794496 -42 69 C-42.53625 69.9075 -43.0725 70.815 -43.625 71.75 C-44.07875 72.4925 -44.5325 73.235 -45 74 C-45.66 74 -46.32 74 -47 74 C-47.15855469 74.59167969 -47.31710937 75.18335938 -47.48046875 75.79296875 C-49.31578188 82.00869776 -51.46973111 85.99633388 -57.3125 89.3125 C-57.869375 89.539375 -58.42625 89.76625 -59 90 C-57.32635928 86.25267761 -55.06447042 83.89842221 -52.14453125 81.07421875 C-50.65769665 78.88295265 -50.65769665 78.88295265 -51.55078125 75.5703125 C-52 72 -52 72 -50.5859375 69.54296875 C-49.85632813 68.76566406 -49.12671875 67.98835937 -48.375 67.1875 C-44.19396047 62.4498515 -40.41746454 57.58362106 -36.75 52.4375 C-35.91976318 51.27686035 -35.91976318 51.27686035 -35.07275391 50.09277344 C-33.93830972 48.50644395 -32.80468687 46.91952679 -31.671875 45.33203125 C-30.08496618 43.11851591 -28.48368468 40.91647327 -26.875 38.71875 C-17.59980304 26.0269104 -8.7846242 13.03361405 0 0 Z " fill="#151516" transform="translate(648,721)"/>
<path d="M0 0 C3 0 3 0 6 1 C-0.64544335 11.35242536 -9.73670503 19.85858522 -18.34597778 28.57614136 C-19.72652181 29.9761901 -21.1005056 31.38269795 -22.47436523 32.78930664 C-27.10671099 37.44482915 -31.17928858 41.00105398 -37 44 C-40.27380904 46.12226781 -43.4775185 48.34519343 -46.6875 50.5625 C-47.52861328 51.13935547 -48.36972656 51.71621094 -49.23632812 52.31054688 C-52.87519247 54.81244647 -56.48073329 57.33139231 -60 60 C-60.66 59.67 -61.32 59.34 -62 59 C-55.4003799 52.70036263 -48.91948436 46.6532154 -41.3203125 41.55859375 C-28.69362821 33.07703309 -17.45682918 22.4657748 -8.23828125 10.39453125 C-7.49976929 9.4341394 -7.49976929 9.4341394 -6.74633789 8.4543457 C-5.76077788 7.16711974 -4.78441572 5.8727909 -3.81811523 4.57104492 C-2.61419659 2.99244939 -1.31323541 1.4888911 0 0 Z " fill="#ECEBEC" transform="translate(498,775)"/>
<path d="M0 0 C0.495 0.99 0.495 0.99 1 2 C0.1706543 3.7331543 0.1706543 3.7331543 -1.17578125 5.82421875 C-1.66925049 6.59838135 -2.16271973 7.37254395 -2.67114258 8.17016602 C-3.21279053 9.00088623 -3.75443848 9.83160645 -4.3125 10.6875 C-4.85994873 11.53948975 -5.40739746 12.39147949 -5.97143555 13.26928711 C-7.63714848 15.85318176 -9.3156369 18.4282308 -11 21 C-11.71349609 22.09006348 -11.71349609 22.09006348 -12.44140625 23.20214844 C-15.25910131 27.49235615 -18.11782869 31.75285672 -21 36 C-21.5671875 36.84175781 -22.134375 37.68351563 -22.71875 38.55078125 C-28.47535942 46.94583666 -34.77157158 54.95324233 -41 63 C-41.49081055 63.63550781 -41.98162109 64.27101563 -42.48730469 64.92578125 C-52.024285 77.2545558 -61.74482631 89.18429079 -73 100 C-73 96.25408338 -72.21555699 95.83714691 -69.6875 93.1875 C-64.08021876 87.07851465 -59.06347743 80.55909532 -54 74 C-53.48775879 73.33935547 -52.97551758 72.67871094 -52.44775391 71.99804688 C-44.62651529 61.90394909 -37.05972542 51.64747417 -29.625 41.26611328 C-26.92681619 37.50341163 -24.21259357 33.75231905 -21.5 30 C-20.4309303 28.51957406 -19.36192008 27.03910516 -18.29296875 25.55859375 C-15.98457371 22.36219386 -13.67437949 19.16710213 -11.36328125 15.97265625 C-10.76902344 15.15087891 -10.17476562 14.32910156 -9.5625 13.48242188 C-8.42102209 11.90397195 -7.27911518 10.32583215 -6.13671875 8.74804688 C-5.36714844 7.68360352 -5.36714844 7.68360352 -4.58203125 6.59765625 C-3.90491089 5.66191772 -3.90491089 5.66191772 -3.21411133 4.70727539 C-2.11300446 3.15890613 -1.05391339 1.58087009 0 0 Z " fill="#232424" transform="translate(573,702)"/>
<path d="M0 0 C0.66 0.33 1.32 0.66 2 1 C1.4740625 1.928125 1.4740625 1.928125 0.9375 2.875 C0.628125 3.57625 0.31875 4.2775 0 5 C0.495 5.99 0.495 5.99 1 7 C-3.84576384 11.0782315 -8.41059909 14.4575191 -14.2890625 16.83984375 C-17.92464902 18.39570715 -21.41594042 20.20371074 -24.9375 22 C-30.22926749 24.68466706 -35.50622325 27.15719755 -41.08203125 29.2109375 C-43.26812906 30.03689562 -43.26812906 30.03689562 -46 32 C-47.46006217 32.6103759 -48.9418396 33.17045045 -50.4375 33.6875 C-51.19933594 33.95949219 -51.96117187 34.23148438 -52.74609375 34.51171875 C-55.24486639 35.05304731 -56.58059973 34.69039485 -59 34 C-49.18449473 28.78993495 -39.35382103 23.62882168 -29.39013672 18.70703125 C-25.04029757 16.54938621 -20.78889015 14.26992781 -16.6015625 11.8125 C-15 11 -15 11 -13 11 C-12.7834375 10.41863281 -12.566875 9.83726562 -12.34375 9.23828125 C-10.55398027 6.25706598 -8.43564684 5.02227928 -5.5 3.1875 C-4.5203125 2.56230469 -3.540625 1.93710937 -2.53125 1.29296875 C-1.6959375 0.86628906 -0.860625 0.43960938 0 0 Z " fill="#EAE9EA" transform="translate(464,881)"/>
<path d="M0 0 C0 4.45883446 -2.85764065 6.69631422 -5.6875 9.875 C-6.26967285 10.53830322 -6.8518457 11.20160645 -7.45166016 11.88500977 C-11.96535045 16.97154955 -16.68466974 21.81802453 -21.54589844 26.57128906 C-24.34706247 29.31455669 -26.96728049 32.07282401 -29.4375 35.125 C-33.97599506 40.49802942 -39.81162039 44.53967135 -45.38769531 48.76757812 C-47.62142673 50.47500941 -49.8127155 52.23366459 -52 54 C-52.8125 51.8125 -52.8125 51.8125 -53 49 C-51.40341543 47.01803295 -49.92574482 45.63370879 -48 44 C-46.88818359 42.97519531 -46.88818359 42.97519531 -45.75390625 41.9296875 C-41.79528161 38.28602363 -37.80500086 34.79125064 -33.5 31.5625 C-29.07751707 28.20078899 -25.27644238 24.36984105 -21.3984375 20.40234375 C-19.34979584 18.35036554 -17.26884694 16.44014627 -15.0625 14.5625 C-9.74391872 10.01931764 -4.90169631 4.98279055 0 0 Z " fill="#1D1D1E" transform="translate(521,806)"/>
<path d="M0 0 C0 3.78140879 -0.97458151 4.51916614 -3.375 7.375 C-6.21799418 10.81467197 -8.9946766 14.27914255 -11.68286133 17.83959961 C-15.86598159 23.37557955 -20.22367552 28.63834904 -24.9296875 33.74609375 C-26.77315157 35.75303483 -28.54779093 37.79912242 -30.3125 39.875 C-37.4610861 48.05431247 -45.04959297 55.80356437 -54 62 C-54 61.01 -54 60.02 -54 59 C-54.66 58.67 -55.32 58.34 -56 58 C-54.97916667 57.125 -53.95833333 56.25 -52.9375 55.375 C-51.97070312 54.54355469 -51.97070312 54.54355469 -50.984375 53.6953125 C-49.77308712 52.66047206 -48.5557668 51.63257347 -47.328125 50.6171875 C-39.93510986 44.45634155 -33.21743299 37.55978011 -26.96875 30.25 C-24.41813696 27.33501367 -21.76859751 24.51798528 -19.125 21.6875 C-14.50688648 16.73056142 -10.15166791 11.64746054 -5.9375 6.33984375 C-4.07021732 4.08479874 -2.1039823 2.03353646 0 0 Z " fill="#171717" transform="translate(578,795)"/>
<path d="M0 0 C0 7.71983802 -7.3566463 14.83601975 -12.11035156 20.3918457 C-15.08745739 23.87532632 -17.89195738 27.44318093 -20.625 31.125 C-23.48033417 34.97085717 -26.35425983 38.79498156 -29.3125 42.5625 C-29.92738281 43.34753906 -30.54226563 44.13257813 -31.17578125 44.94140625 C-34.31659452 48.48575013 -37.51415945 50.50471982 -42 52 C-42.99 52 -43.98 52 -45 52 C-44.38253906 51.40574219 -43.76507813 50.81148437 -43.12890625 50.19921875 C-37.84421633 45.02714018 -33.032959 39.76207593 -28.4140625 33.984375 C-25.67437908 30.59745245 -22.84684736 27.2967737 -20 24 C-15.55850422 18.84648725 -11.20412151 13.63614138 -6.9140625 8.35546875 C-4.63380496 5.5493559 -2.32208587 2.77152185 0 0 Z " fill="#191A19" transform="translate(520,743)"/>
<path d="M0 0 C0.99 0.33 1.98 0.66 3 1 C0.51757153 5.61521912 -2.69150052 9.20626436 -6.25 13 C-6.85827637 13.65137939 -7.46655273 14.30275879 -8.09326172 14.97387695 C-13.65861806 20.8294948 -19.63508754 26.10666267 -25.8203125 31.29296875 C-28.34594746 33.41145776 -30.71549713 35.6188888 -33 38 C-33.66 37.67 -34.32 37.34 -35 37 C-30.45248562 31.29756133 -25.91349187 25.74524383 -20.67578125 20.6640625 C-15.1754381 15.20218329 -10.45182665 9.08802579 -5.796875 2.90625 C-4.90742188 1.96265625 -4.90742188 1.96265625 -4 1 C-3.01 1 -2.02 1 -1 1 C-0.67 0.67 -0.34 0.34 0 0 Z " fill="#E9E9EA" transform="translate(491,773)"/>
<path d="M0 0 C0.66 0.33 1.32 0.66 2 1 C-7.42635794 11.61148998 -17.40299859 21.11310493 -28.58984375 29.89453125 C-31.11204145 31.95991421 -31.11204145 31.95991421 -33.12890625 34.76171875 C-33.74636719 35.50035156 -34.36382813 36.23898437 -35 37 C-35.99 37 -36.98 37 -38 37 C-38.66 35.02 -39.32 33.04 -40 31 C-37.56549462 28.79571947 -35.12663786 26.59672114 -32.6796875 24.40625 C-31.06947878 22.96034829 -29.46762178 21.50494719 -27.8828125 20.03125 C-26.3216792 18.61081971 -24.66786169 17.29344376 -23 16 C-22.01 16.33 -21.02 16.66 -20 17 C-20.99 17.99 -21.98 18.98 -23 20 C-19.70718121 20.3346989 -19.70718121 20.3346989 -17.0390625 17.33203125 C-15.8933646 16.16635025 -14.75563773 14.99279412 -13.625 13.8125 C-13.06039062 13.23435547 -12.49578125 12.65621094 -11.9140625 12.06054688 C-10.79827225 10.91763672 -9.68526235 9.77200487 -8.57519531 8.62353516 C-6.40856102 6.39041085 -4.20592452 4.19423234 -2 2 C-1.34 1.34 -0.68 0.68 0 0 Z " fill="#111011" transform="translate(563,837)"/>
<path d="M0 0 C0.66 0.33 1.32 0.66 2 1 C-0.32938703 5.33858341 -3.33941597 8.68663644 -6.8125 12.125 C-7.37565918 12.68469482 -7.93881836 13.24438965 -8.51904297 13.82104492 C-12.69748667 17.89540132 -17.05624701 21.68272938 -21.625 25.3125 C-22.21643799 25.7863916 -22.80787598 26.2602832 -23.41723633 26.74853516 C-27.62268364 30 -27.62268364 30 -31 30 C-31.33 28.68 -31.66 27.36 -32 26 C-31.37996094 25.57332031 -30.75992187 25.14664063 -30.12109375 24.70703125 C-22.20655371 19.11961943 -14.98418114 12.90267783 -7.72412109 6.50244141 C-5.18558079 4.29029513 -2.59673661 2.14340128 0 0 Z " fill="#141414" transform="translate(487,819)"/>
<path d="M0 0 C1.32 1.65 2.64 3.3 4 5 C-7.06922883 18.13094776 -7.06922883 18.13094776 -12.05859375 23.76953125 C-13.67514513 25.6267764 -15.26536035 27.50043242 -16.84765625 29.38671875 C-17.36593994 30.0010376 -17.88422363 30.61535645 -18.41821289 31.24829102 C-19.44151079 32.4623813 -20.46053236 33.6800944 -21.47436523 34.90209961 C-24.98156376 39.05069469 -28.78253782 42.57955083 -33 46 C-31.37077443 42.56392992 -29.48130735 40.16293156 -26.875 37.375 C-23.69468706 33.89155545 -20.56733954 30.38656997 -17.5625 26.75 C-16.92441406 25.98171875 -16.28632812 25.2134375 -15.62890625 24.421875 C-13.80164898 21.70508962 -12.97354479 19.11194228 -12 16 C-10.71937515 14.2925002 -9.38232443 12.62626404 -8 11 C-7.319375 9.96875 -6.63875 8.9375 -5.9375 7.875 C-4.3930533 5.58324038 -2.97522816 3.88116967 -1 2 C-0.67 1.34 -0.34 0.68 0 0 Z " fill="#EAEAEA" transform="translate(612,781)"/>
<path d="M0 0 C-1.12685023 3.38055068 -2.05384625 4.1079382 -4.75 6.3125 C-8.28485847 9.3250911 -11.31962477 12.19559645 -14 16 C-13.67 16.99 -13.34 17.98 -13 19 C-26.6332574 31.66970387 -26.6332574 31.66970387 -33 37 C-33.66 36.34 -34.32 35.68 -35 35 C-33.82236975 33.57991646 -32.64348332 32.16086193 -31.45947266 30.74609375 C-30.14137025 29.16913349 -28.83187716 27.58498684 -27.5234375 26 C-23.34084806 21.12934042 -18.79508313 16.60903804 -14.2578125 12.07250977 C-12.73407487 10.54655166 -11.2185557 9.01271855 -9.703125 7.47851562 C-8.7348633 6.50732543 -7.76613071 5.53660442 -6.796875 4.56640625 C-5.92385742 3.68927979 -5.05083984 2.81215332 -4.15136719 1.90844727 C-2 0 -2 0 0 0 Z M-32 29 C-31.34 29.33 -30.68 29.66 -30 30 C-30.99 30 -31.98 30 -33 30 C-32.67 29.67 -32.34 29.34 -32 29 Z " fill="#161617" transform="translate(574,822)"/>
<path d="M0 0 C0.495 0.99 0.495 0.99 1 2 C0.1706543 3.7331543 0.1706543 3.7331543 -1.17578125 5.82421875 C-1.66925049 6.59838135 -2.16271973 7.37254395 -2.67114258 8.17016602 C-3.4836145 9.41624634 -3.4836145 9.41624634 -4.3125 10.6875 C-4.85994873 11.53948975 -5.40739746 12.39147949 -5.97143555 13.26928711 C-7.63714848 15.85318176 -9.3156369 18.4282308 -11 21 C-11.47566406 21.72670898 -11.95132813 22.45341797 -12.44140625 23.20214844 C-26.29393305 44.29393305 -26.29393305 44.29393305 -30 48 C-30.99 47.34 -31.98 46.68 -33 46 C-31.6792111 44.17121537 -30.35841644 42.34243492 -29.03759766 40.51367188 C-27.87441691 38.90306326 -26.71133308 37.29238465 -25.54833984 35.68164062 C-22.53054935 31.50228855 -19.51133588 27.3239838 -16.48828125 23.1484375 C-10.93326313 15.47258655 -5.38643416 7.79563925 0 0 Z " fill="#1F2020" transform="translate(573,702)"/>
<path d="M0 0 C0.66 0.33 1.32 0.66 2 1 C-2.41216409 8.29029762 -7.24842298 15.06232908 -12.48828125 21.76171875 C-16.12122324 26.41339998 -19.55967281 31.2046836 -23 36 C-23.33 35.34 -23.66 34.68 -24 34 C-26.31 35.98 -28.62 37.96 -31 40 C-31.66 39.67 -32.32 39.34 -33 39 C-32.18208984 38.21689453 -32.18208984 38.21689453 -31.34765625 37.41796875 C-26.33211698 32.52245948 -21.7801103 27.44294099 -17.40234375 21.97265625 C-14.28163193 18.11109252 -11.05475359 14.34430652 -7.80517578 10.59082031 C-4.90606121 7.20335508 -2.40099653 3.74421138 0 0 Z " fill="#171717" transform="translate(520,756)"/>
<path d="M0 0 C0.33 0.66 0.66 1.32 1 2 C0.25556641 2.63615234 0.25556641 2.63615234 -0.50390625 3.28515625 C-3.8942598 6.2123116 -7.20140222 9.15063409 -10.3125 12.375 C-13.31221988 15.40236706 -16.45086894 18.22697126 -19.6875 21 C-20.59886719 21.78375 -21.51023437 22.5675 -22.44921875 23.375 C-25 25 -25 25 -27.33203125 24.75 C-27.88246094 24.5025 -28.43289063 24.255 -29 24 C-28.67 23.67 -28.34 23.34 -28 23 C-28.66 22.34 -29.32 21.68 -30 21 C-20.03575157 13.9474601 -10.05400494 6.92414949 0 0 Z " fill="#151415" transform="translate(496,852)"/>
<path d="M0 0 C-0.99 1.485 -0.99 1.485 -2 3 C-2 4.32 -2 5.64 -2 7 C-4.59016835 9.93552413 -7.55644819 12.14621191 -11 14 C-14.4375 13.5 -14.4375 13.5 -17 12 C-17.66 11.67 -18.32 11.34 -19 11 C-17.21079529 9.3514184 -15.4187995 7.70606879 -13.625 6.0625 C-12.86316406 5.35963867 -12.86316406 5.35963867 -12.0859375 4.64257812 C-7.73387713 0.66273344 -5.88805863 -0.12800127 0 0 Z " fill="#1A191A" transform="translate(467,826)"/>
<path d="M0 0 C0.66 0.33 1.32 0.66 2 1 C1.195625 1.61875 0.39125 2.2375 -0.4375 2.875 C-3.03874519 4.74164041 -3.03874519 4.74164041 -4 7 C-2.68 7.33 -1.36 7.66 0 8 C-0.97324219 8.40734375 -1.94648438 8.8146875 -2.94921875 9.234375 C-5.7801577 10.44631059 -8.56177718 11.73340136 -11.33203125 13.078125 C-12.06744141 13.43390625 -12.80285156 13.7896875 -13.56054688 14.15625 C-15.0838008 14.89607845 -16.60458082 15.64101877 -18.12304688 16.390625 C-20.05462325 17.31969445 -22.02504349 18.16711099 -24 19 C-24.66 18.67 -25.32 18.34 -26 18 C-25.51789063 17.68546875 -25.03578125 17.3709375 -24.5390625 17.046875 C-23.90742188 16.61890625 -23.27578125 16.1909375 -22.625 15.75 C-21.68527344 15.12351562 -21.68527344 15.12351562 -20.7265625 14.484375 C-18.88578588 13.11529116 -18.88578588 13.11529116 -18.13232422 11.05688477 C-16.77152465 8.58497092 -15.63267096 7.90825382 -13.15625 6.60546875 C-12.40472656 6.20779297 -11.65320313 5.81011719 -10.87890625 5.40039062 C-9.70134766 4.80000977 -9.70134766 4.80000977 -8.5 4.1875 C-7.71496094 3.76791016 -6.92992187 3.34832031 -6.12109375 2.91601562 C-1.79312359 0.66294711 -1.79312359 0.66294711 0 0 Z " fill="#E5E5E5" transform="translate(418,874)"/>
<path d="M0 0 C0 0.66 0 1.32 0 2 C-4.06348314 3.75654891 -8.13121938 5.50255024 -12.20507812 7.23486328 C-13.71701523 7.87936966 -15.22604062 8.53070044 -16.734375 9.18359375 C-24.40615495 12.4052399 -32.59284425 15.30627161 -41 15 C-38.32041384 11.52537179 -35.21616479 11.0937598 -31.0625 10.125 C-25.01561935 8.64068593 -19.45001816 6.67439984 -13.734375 4.171875 C-4 0 -4 0 0 0 Z " fill="#D2D2D3" transform="translate(423,915)"/>
<path d="M0 0 C0 4.12000386 -1.64525832 5.46624941 -4.1875 8.6875 C-4.62368652 9.24332764 -5.05987305 9.79915527 -5.50927734 10.37182617 C-11.249995 17.65227274 -17.12560817 24.82734917 -23 32 C-23.99 31.67 -24.98 31.34 -26 31 C-27.485 32.485 -27.485 32.485 -29 34 C-29.66 33.67 -30.32 33.34 -31 33 C-30.43079834 32.43603516 -29.86159668 31.87207031 -29.27514648 31.29101562 C-26.65988156 28.69673231 -24.04867381 26.09840077 -21.4375 23.5 C-20.54224609 22.613125 -19.64699219 21.72625 -18.72460938 20.8125 C-12.07452267 14.18677259 -5.7818192 7.40072858 0 0 Z " fill="#1B1A1A" transform="translate(502,753)"/>
<path d="M0 0 C-0.33 0.99 -0.66 1.98 -1 3 C-2.62979405 3.76500537 -4.26797959 4.51764556 -5.9453125 5.171875 C-9.40344441 6.56564679 -12.67844916 8.31008817 -16 10 C-15.01 10.66 -14.02 11.32 -13 12 C-16.53980214 15.40295412 -20.06652107 15.5325645 -24.75 15.6875 C-25.79607422 15.73874023 -25.79607422 15.73874023 -26.86328125 15.79101562 C-28.57497108 15.87308295 -30.2874576 15.93822919 -32 16 C-28.6715223 12.32179094 -26.29059484 10.40161456 -21.5 9.125 C-15.33589028 7.27423753 -10.17437335 4.56235217 -4.6171875 1.390625 C-2 0 -2 0 0 0 Z " fill="#EAE9EA" transform="translate(404,902)"/>
<path d="M0 0 C0.55816406 0.25007812 1.11632812 0.50015625 1.69140625 0.7578125 C1.03140625 1.4178125 0.37140625 2.0778125 -0.30859375 2.7578125 C-0.30859375 3.7478125 -0.30859375 4.7378125 -0.30859375 5.7578125 C-1.77734375 7.37109375 -1.77734375 7.37109375 -3.80859375 9.0703125 C-4.53046875 9.67617188 -5.25234375 10.28203125 -5.99609375 10.90625 C-9.37187803 13.60915836 -12.80933149 16.21712474 -16.30859375 18.7578125 C-17.12109375 16.5703125 -17.12109375 16.5703125 -17.30859375 13.7578125 C-15.71020562 11.77360655 -14.22873121 10.40245198 -12.30859375 8.7578125 C-11.509375 7.98179687 -10.71015625 7.20578125 -9.88671875 6.40625 C-9.0153125 5.57351563 -8.14390625 4.74078125 -7.24609375 3.8828125 C-5.99119141 2.68011719 -5.99119141 2.68011719 -4.7109375 1.453125 C-2.30859375 -0.2421875 -2.30859375 -0.2421875 0 0 Z " fill="#131313" transform="translate(485.30859375,841.2421875)"/>
<path d="M0 0 C0.66 0.33 1.32 0.66 2 1 C2 1.99 2 2.98 2 4 C-5.19640097 10.90854493 -16.55814114 11.96997903 -26 13 C-26 12.34 -26 11.68 -26 11 C-24.28103516 10.29423828 -24.28103516 10.29423828 -22.52734375 9.57421875 C-20.9973846 8.94533983 -19.46743731 8.31643205 -17.9375 7.6875 C-17.18533203 7.37876953 -16.43316406 7.07003906 -15.65820312 6.75195312 C-7.74373332 3.56616164 -7.74373332 3.56616164 0 0 Z " fill="#DCDCDC" transform="translate(427,920)"/>
<path d="M0 0 C0.33 0.99 0.66 1.98 1 3 C-0.04800781 3.40992188 -1.09601563 3.81984375 -2.17578125 4.2421875 C-3.55476009 4.78627439 -4.93366236 5.33055538 -6.3125 5.875 C-7.00279297 6.14441406 -7.69308594 6.41382813 -8.40429688 6.69140625 C-11.51013099 7.92173667 -14.20982695 9.13988463 -17 11 C-18.46006217 11.6103759 -19.9418396 12.17045045 -21.4375 12.6875 C-22.19933594 12.95949219 -22.96117187 13.23148438 -23.74609375 13.51171875 C-26.24486639 14.05304731 -27.58059973 13.69039485 -30 13 C-27.02347168 11.41167112 -24.04330229 9.83029131 -21.0625 8.25 C-20.23169922 7.8065625 -19.40089844 7.363125 -18.54492188 6.90625 C-2.82496456 -1.41248228 -2.82496456 -1.41248228 0 0 Z " fill="#D6D6D6" transform="translate(435,902)"/>
<path d="M0 0 C0 7.24828402 -6.59835451 14.02824492 -11 19.5 C-12.2065625 21.00046875 -12.2065625 21.00046875 -13.4375 22.53125 C-16.22223659 25.21410598 -18.28071988 26.09180369 -22 27 C-17.5496316 20.76948424 -12.63087847 15.0284445 -7.58325195 9.28100586 C-4.9371984 6.26312507 -2.33661748 3.26961315 0 0 Z " fill="#242425" transform="translate(520,743)"/>
<path d="M0 0 C0.33 0.99 0.66 1.98 1 3 C-0.63153894 5.40547408 -2.27692685 7.58407846 -4.125 9.8125 C-4.61226562 10.41642578 -5.09953125 11.02035156 -5.6015625 11.64257812 C-8.69333179 15.46206439 -11.84794121 19.23023005 -15 23 C-15.66 22.67 -16.32 22.34 -17 22 C-15.42869189 18.54960177 -13.38146545 15.66484214 -11.125 12.625 C-8.88177755 9.59076782 -6.68456696 6.57652369 -4.6875 3.375 C-3 1 -3 1 0 0 Z " fill="#1E1D1D" transform="translate(542,748)"/>
<path d="M0 0 C0.66 0.33 1.32 0.66 2 1 C-22.28137988 28.33416459 -22.28137988 28.33416459 -35 34 C-31.59629996 29.67638103 -28.12412775 26.17830001 -23.8125 22.75 C-17.73320683 17.90647038 -12.41262377 12.56437958 -7 7 C-5.33574704 5.33092312 -3.66949392 3.66383461 -2 2 C-1.34 1.34 -0.68 0.68 0 0 Z " fill="#D2D2D2" transform="translate(563,837)"/>
<path d="M0 0 C-1.34199688 2.92093506 -2.86491745 5.2113951 -4.96875 7.63671875 C-5.53980469 8.29607422 -6.11085938 8.95542969 -6.69921875 9.63476562 C-7.59060547 10.65086914 -7.59060547 10.65086914 -8.5 11.6875 C-9.09425781 12.37650391 -9.68851563 13.06550781 -10.30078125 13.77539062 C-14.73849902 18.86924951 -14.73849902 18.86924951 -17 20 C-17 19.34 -17 18.68 -17 18 C-18.65 18.66 -20.3 19.32 -22 20 C-21.00033203 19.00419922 -21.00033203 19.00419922 -19.98046875 17.98828125 C-17.73986861 15.74926067 -15.51839724 13.49224457 -13.30078125 11.23046875 C-11.97144431 9.88272358 -10.64201548 8.53506904 -9.3125 7.1875 C-8.29833008 6.14819336 -8.29833008 6.14819336 -7.26367188 5.08789062 C-6.29204102 4.1065918 -6.29204102 4.1065918 -5.30078125 3.10546875 C-4.71466064 2.50887451 -4.12854004 1.91228027 -3.5246582 1.29760742 C-2 0 -2 0 0 0 Z " fill="#151717" transform="translate(546,826)"/>
<path d="M0 0 C0.66 0.33 1.32 0.66 2 1 C1.54625 1.4125 1.0925 1.825 0.625 2.25 C-1.0783413 3.90045398 -1.0783413 3.90045398 -1.89306641 5.95483398 C-3.13357378 8.24679038 -4.16042754 9.08138302 -6.3359375 10.47265625 C-6.98820312 10.89740234 -7.64046875 11.32214844 -8.3125 11.75976562 C-9.3334375 12.40461914 -9.3334375 12.40461914 -10.375 13.0625 C-11.71675389 13.92744288 -13.0579166 14.79330366 -14.3984375 15.66015625 C-15.02459961 16.06250488 -15.65076172 16.46485352 -16.29589844 16.87939453 C-18.26211126 18.17236256 -20.14645819 19.55043525 -22 21 C-22.66 20.67 -23.32 20.34 -24 20 C-16.68695422 13.01936539 -9.4627728 6.58759999 -1 1 C-0.67 0.67 -0.34 0.34 0 0 Z " fill="#E1E0E1" transform="translate(460,814)"/>
<path d="M0 0 C0 0.66 0 1.32 0 2 C3.465 1.505 3.465 1.505 7 1 C4.3833857 4.34345161 2.0919514 4.40480707 -2 5 C-4.55815445 5.85675947 -7.10062781 6.74104075 -9.6328125 7.671875 C-12 8 -12 8 -14.3046875 6.578125 C-14.86414063 6.05734375 -15.42359375 5.5365625 -16 5 C-15.67 4.34 -15.34 3.68 -15 3 C-13.00822259 2.62061383 -11.00569659 2.29714023 -9 2 C-1.94117647 0 -1.94117647 0 0 0 Z " fill="#262626" transform="translate(420,912)"/>
<path d="M0 0 C0.99 0.33 1.98 0.66 3 1 C3.87280273 2.84667969 3.87280273 2.84667969 4 5 C2.82836914 6.73925781 2.82836914 6.73925781 1.03515625 8.453125 C0.40029297 9.071875 -0.23457031 9.690625 -0.88867188 10.328125 C-1.56478516 10.96234375 -2.24089844 11.5965625 -2.9375 12.25 C-3.60974609 12.8996875 -4.28199219 13.549375 -4.97460938 14.21875 C-6.63912593 15.82424114 -8.31415428 17.41696904 -10 19 C-10 15.70767651 -9.53392235 14.89675367 -7.8125 12.20703125 C-7.36132812 11.49482422 -6.91015625 10.78261719 -6.4453125 10.04882812 C-5.96835937 9.31083984 -5.49140625 8.57285156 -5 7.8125 C-4.52304687 7.06291016 -4.04609375 6.31332031 -3.5546875 5.54101562 C-2.37575044 3.69008444 -1.19070421 1.84337479 0 0 Z " fill="#EEEEEE" transform="translate(480,769)"/>
<path d="M0 0 C0.721875 0.103125 1.44375 0.20625 2.1875 0.3125 C0.90491712 4.16024864 -0.88869086 5.20106664 -4.0625 7.6875 C-7.89703575 10.70331055 -11.41755938 13.80604674 -14.8125 17.3125 C-15.4725 16.9825 -16.1325 16.6525 -16.8125 16.3125 C-15.42020997 14.58047907 -14.02349444 12.85201516 -12.625 11.125 C-11.84769531 10.16207031 -11.07039063 9.19914063 -10.26953125 8.20703125 C-3.64693709 0.40521523 -3.64693709 0.40521523 0 0 Z " fill="#E0DFE0" transform="translate(472.8125,793.6875)"/>
<path d="M0 0 C2 2 2 2 2 4.1875 C0.56470706 8.22426138 -2.09222224 10.9143765 -5 14 C-5.99 13.67 -6.98 13.34 -8 13 C-8.33 12.01 -8.66 11.02 -9 10 C-6.03 6.7 -3.06 3.4 0 0 Z " fill="#0E0D0E" transform="translate(596,794)"/>
<path d="M0 0 C0 3 0 3 -1.87109375 5.234375 C-7.31260234 10.56821295 -12.8411282 15.50729642 -19 20 C-19.66 19.34 -20.32 18.68 -21 18 C-21 17.34 -21 16.68 -21 16 C-19.34030562 14.98847029 -17.67122756 13.99235892 -16 13 C-13.17062368 10.84239289 -10.43216518 8.57641954 -7.6875 6.3125 C-6.94693359 5.70599609 -6.20636719 5.09949219 -5.44335938 4.47460938 C-3.62650345 2.98595968 -1.81215423 1.49436651 0 0 Z " fill="#262525" transform="translate(493,805)"/>
<path d="M0 0 C-0.39175273 2.43931365 -0.7372236 3.73170598 -2.48828125 5.51953125 C-3.09027344 5.94621094 -3.69226563 6.37289062 -4.3125 6.8125 C-4.90675781 7.25207031 -5.50101562 7.69164062 -6.11328125 8.14453125 C-8.48204164 9.21856546 -9.60093031 8.86324141 -12 8 C-9.61073151 2.4250402 -6.23702493 -1.87110748 0 0 Z " fill="#111111" transform="translate(469,875)"/>
<path d="M0 0 C0.99 0.99 1.98 1.98 3 3 C-0.63 6.3 -4.26 9.6 -8 13 C-8.33 12.01 -8.66 11.02 -9 10 C-9.66 9.67 -10.32 9.34 -11 9 C-3.70159453 2.66514806 -3.70159453 2.66514806 0 0 Z " fill="#201F21" transform="translate(533,844)"/>
<path d="M0 0 C0.66 0.33 1.32 0.66 2 1 C1.93359375 3.2890625 1.93359375 3.2890625 1 6 C-1.37496647 7.41116845 -3.39485869 8.4022948 -5.9375 9.375 C-6.58396484 9.64699219 -7.23042969 9.91898438 -7.89648438 10.19921875 C-9.56853676 10.87637392 -11.28307025 11.44642023 -13 12 C-13.66 11.67 -14.32 11.34 -15 11 C-10.11528387 7.13564679 -5.24569384 3.36262426 0 0 Z " fill="#EBEBEB" transform="translate(432,854)"/>
<path d="M0 0 C0.66 1.32 1.32 2.64 2 4 C-1.3 7.3 -4.6 10.6 -8 14 C-8.99 13.67 -9.98 13.34 -11 13 C-9.46356148 9.31930113 -7.21849055 7.01224796 -4.375 4.25 C-3.55773437 3.45078125 -2.74046875 2.6515625 -1.8984375 1.828125 C-0.95871094 0.92320312 -0.95871094 0.92320312 0 0 Z " fill="#111111" transform="translate(545,832)"/>
<path d="M0 0 C0.66 0.33 1.32 0.66 2 1 C-0.6671512 6.03795227 -4.10367841 11.05701158 -9.6875 12.875 C-11.45624136 12.97060764 -13.22867654 13 -15 13 C-13.06478939 11.20580474 -11.1269646 9.41458671 -9.1875 7.625 C-8.64029297 7.11710938 -8.09308594 6.60921875 -7.52929688 6.0859375 C-5.09977985 3.84783697 -2.75431332 1.83620888 0 0 Z " fill="#2E2E2E" transform="translate(487,819)"/>
<path d="M0 0 C0.33 0.99 0.66 1.98 1 3 C-0.765625 5.69921875 -0.765625 5.69921875 -3.25 8.6875 C-4.05953125 9.68136719 -4.8690625 10.67523437 -5.703125 11.69921875 C-6.84007812 12.83810547 -6.84007812 12.83810547 -8 14 C-8.99 14 -9.98 14 -11 14 C-11 10.30159372 -10.17133056 9.68584567 -7.75 7 C-7.14671875 6.319375 -6.5434375 5.63875 -5.921875 4.9375 C-4.06233388 3.06284066 -2.15205789 1.52358081 0 0 Z " fill="#141314" transform="translate(502,767)"/>
<path d="M0 0 C-0.33 0.99 -0.66 1.98 -1 3 C-2.62979405 3.76500537 -4.26797959 4.51764556 -5.9453125 5.171875 C-9.40344441 6.56564679 -12.67844916 8.31008817 -16 10 C-15.01 10.66 -14.02 11.32 -13 12 C-14.875 13.0625 -14.875 13.0625 -17 14 C-17.66 13.67 -18.32 13.34 -19 13 C-19 12.34 -19 11.68 -19 11 C-20.98 11 -22.96 11 -25 11 C-22.19340595 9.1289373 -19.6134646 8.12772098 -16.46484375 6.99609375 C-12.35766223 5.33629773 -8.46626058 3.25016848 -4.5390625 1.20703125 C-2 0 -2 0 0 0 Z " fill="#C8C8C9" transform="translate(404,902)"/>
<path d="M0 0 C-0.45375 0.4125 -0.9075 0.825 -1.375 1.25 C-3.10274711 2.91951012 -3.10274711 2.91951012 -3.9375 5.125 C-5 7 -5 7 -7 7.8125 C-9 8 -9 8 -11 7 C-11 6.34 -11 5.68 -11 5 C-11.99 4.67 -12.98 4.34 -14 4 C-4.58997722 -0.59225513 -4.58997722 -0.59225513 0 0 Z " fill="#0D0D0D" transform="translate(419,920)"/>
<path d="M0 0 C0.66 0.33 1.32 0.66 2 1 C2 1.99 2 2.98 2 4 C1.34 4 0.68 4 0 4 C-0.33 4.99 -0.66 5.98 -1 7 C-2.9375 8.25 -2.9375 8.25 -5 9 C-5.66 8.67 -6.32 8.34 -7 8 C-7 7.34 -7 6.68 -7 6 C-7.99 6.33 -8.98 6.66 -10 7 C-10.66 6.34 -11.32 5.68 -12 5 C-10.7625 4.54625 -9.525 4.0925 -8.25 3.625 C-5.93776196 2.76710249 -3.81098275 1.90051724 -1.625 0.75 C-1.08875 0.5025 -0.5525 0.255 0 0 Z " fill="#222222" transform="translate(419,902)"/>
<path d="M0 0 C0.66 0.33 1.32 0.66 2 1 C1.01 2.32 0.02 3.64 -1 5 C-0.01 5.33 0.98 5.66 2 6 C-0.68841859 8.25245881 -2.64641875 9.88213958 -6 11 C-6.33 10.01 -6.66 9.02 -7 8 C-7.99 7.67 -8.98 7.34 -10 7 C-5.25 4 -5.25 4 -3 4 C-3 3.34 -3 2.68 -3 2 C-2.01 1.34 -1.02 0.68 0 0 Z " fill="#1C1B1C" transform="translate(458,878)"/>
<path d="M0 0 C0.33 0.99 0.66 1.98 1 3 C-4.61 8.61 -10.22 14.22 -16 20 C-16 15.77333748 -14.11938062 14.65194776 -11.25 11.625 C-8.66071283 8.87672151 -6.13794868 6.17463715 -3.796875 3.2109375 C-2 1 -2 1 0 0 Z " fill="#CECDCE" transform="translate(546,828)"/>
<path d="M0 0 C0.33 0.66 0.66 1.32 1 2 C0.05957031 3.8918457 0.05957031 3.8918457 -1.421875 6.17578125 C-1.95296875 7.00400391 -2.4840625 7.83222656 -3.03125 8.68554688 C-3.5984375 9.55244141 -4.165625 10.41933594 -4.75 11.3125 C-5.84931589 13.01669649 -6.94828435 14.72111715 -8.046875 16.42578125 C-8.8212793 17.62001709 -8.8212793 17.62001709 -9.61132812 18.83837891 C-11.12590196 21.1959803 -12.58403125 23.58188435 -14 26 C-14.99 25.67 -15.98 25.34 -17 25 C-11.39 16.75 -5.78 8.5 0 0 Z " fill="#2F2F2F" transform="translate(648,721)"/>
<path d="M0 0 C0.99 0 1.98 0 3 0 C2.71711523 3.39461728 2.25867941 4.74132059 -0.1875 7.1875 C-3.07699833 9.04962115 -5.69987462 10.07903478 -9 11 C-7.44095325 7.17324889 -4.96833913 4.81992217 -2 2 C-1.34 1.34 -0.68 0.68 0 0 Z " fill="#EEEEEE" transform="translate(467,809)"/>
<path d="M0 0 C0.99 0.33 1.98 0.66 3 1 C2.43152344 1.6290625 1.86304688 2.258125 1.27734375 2.90625 C0.11912109 4.19015625 0.11912109 4.19015625 -1.0625 5.5 C-2.29419922 6.86511719 -2.29419922 6.86511719 -3.55078125 8.2578125 C-5.6481596 10.60607343 -7.70446715 12.98177172 -9.75 15.375 C-12.27158369 18.27864182 -14.87647149 20.7283429 -18 23 C-16.48418428 19.4951774 -14.41191253 17.0908738 -11.8125 14.3125 C-7.60325099 9.72864145 -3.73635236 4.97379381 0 0 Z " fill="#CCCBCC" transform="translate(597,804)"/>
<path d="M0 0 C0.33 0.66 0.66 1.32 1 2 C-3.61534219 6.06478107 -8.25585812 10.08608295 -13 14 C-14.32 13.34 -15.64 12.68 -17 12 C-8.585 6.06 -8.585 6.06 0 0 Z " fill="#242324" transform="translate(496,852)"/>
<path d="M0 0 C0.33 0.66 0.66 1.32 1 2 C0.04370117 3.93945312 0.04370117 3.93945312 -1.45703125 6.28125 C-1.99263672 7.12300781 -2.52824219 7.96476563 -3.08007812 8.83203125 C-3.93762695 10.15267578 -3.93762695 10.15267578 -4.8125 11.5 C-5.37259766 12.38042969 -5.93269531 13.26085937 -6.50976562 14.16796875 C-10.68904917 20.68904917 -10.68904917 20.68904917 -13 23 C-13.33 22.01 -13.66 21.02 -14 20 C-12.93603516 17.93115234 -12.93603516 17.93115234 -11.2890625 15.5859375 C-10.70382812 14.74289062 -10.11859375 13.89984375 -9.515625 13.03125 C-8.89171875 12.1546875 -8.2678125 11.278125 -7.625 10.375 C-7.00882813 9.49070312 -6.39265625 8.60640625 -5.7578125 7.6953125 C-1.25015944 1.25015944 -1.25015944 1.25015944 0 0 Z " fill="#3A3A3A" transform="translate(573,702)"/>
<path d="M0 0 C0.33 0.99 0.66 1.98 1 3 C-0.59915881 3.69906942 -2.20455045 4.38389468 -3.8125 5.0625 C-4.70582031 5.44535156 -5.59914063 5.82820312 -6.51953125 6.22265625 C-9 7 -9 7 -12 6 C-11 3 -11 3 -9.00390625 1.796875 C-8.19824219 1.45140625 -7.39257812 1.1059375 -6.5625 0.75 C-5.75941406 0.39421875 -4.95632813 0.0384375 -4.12890625 -0.328125 C-2 -1 -2 -1 0 0 Z " fill="#DFDFE0" transform="translate(435,902)"/>
<path d="M0 0 C0 0.66 0 1.32 0 2 C-2.24842091 2.98293267 -4.49859547 3.96144466 -6.75 4.9375 C-7.70132812 5.35418945 -7.70132812 5.35418945 -8.671875 5.77929688 C-11.74367158 7.10720894 -14.71000026 8.34366167 -18 9 C-17 6 -17 6 -14.5 4.5 C-4 0 -4 0 0 0 Z " fill="#DEDEDE" transform="translate(423,915)"/>
<path d="M0 0 C0.99 0.33 1.98 0.66 3 1 C0.69 3.64 -1.62 6.28 -4 9 C-5.32 8.67 -6.64 8.34 -8 8 C-7.3125 5.625 -7.3125 5.625 -6 3 C-3.4375 1.75 -3.4375 1.75 -1 1 C-0.67 0.67 -0.34 0.34 0 0 Z " fill="#1E1E1E" transform="translate(492,836)"/>
<path d="M0 0 C0.33 0.99 0.66 1.98 1 3 C-6.03378378 10.58108108 -6.03378378 10.58108108 -11 12 C-11.99 12.495 -11.99 12.495 -13 13 C-10.67591313 7.57713065 -6.99640408 4.892655 -2 2 C-1.34 1.34 -0.68 0.68 0 0 Z " fill="#0F0E0E" transform="translate(502,826)"/>
<path d="M0 0 C0.99 1.32 1.98 2.64 3 4 C1.35 5.65 -0.3 7.3 -2 9 C-2 8.34 -2 7.68 -2 7 C-4.31 8.98 -6.62 10.96 -9 13 C-9.66 12.67 -10.32 12.34 -11 12 C-10.37351562 11.38511719 -9.74703125 10.77023437 -9.1015625 10.13671875 C-8.28429687 9.32847656 -7.46703125 8.52023437 -6.625 7.6875 C-5.40683594 6.48673828 -5.40683594 6.48673828 -4.1640625 5.26171875 C-1.87395158 2.99990063 -1.87395158 2.99990063 0 0 Z " fill="#2C2C2E" transform="translate(498,783)"/>
<path d="M0 0 C0.99 0.66 1.98 1.32 3 2 C0.03 4.64 -2.94 7.28 -6 10 C-6.66 9.67 -7.32 9.34 -8 9 C-6.64531705 4.12314139 -4.28324091 2.51407619 0 0 Z " fill="#0D0D0D" transform="translate(476,830)"/>
<path d="M0 0 C0 3.63306931 -1.07932067 4.97123644 -3 8 C-3.433125 8.928125 -3.433125 8.928125 -3.875 9.875 C-5.60008853 13.13350055 -7.81770078 16.03473847 -10 19 C-10.66 18.34 -11.32 17.68 -12 17 C-11.21625 16.113125 -10.4325 15.22625 -9.625 14.3125 C-7.96371405 12.33102207 -6.97127305 10.92818263 -6 8.5 C-4.61376804 5.03442011 -2.46715561 2.79178134 0 0 Z " fill="#AFAEAF" transform="translate(585,786)"/>
<path d="M0 0 C1.98 0 3.96 0 6 0 C6 0.66 6 1.32 6 2 C6.66 2.33 7.32 2.66 8 3 C4.6875 4.625 4.6875 4.625 1 6 C0.01 5.34 -0.98 4.68 -2 4 C-1.34 2.68 -0.68 1.36 0 0 Z " fill="#0F0F0F" transform="translate(406,908)"/>
<path d="M0 0 C0.66 0.33 1.32 0.66 2 1 C0.25420935 2.9414396 -1.49637493 4.87815784 -3.25 6.8125 C-3.74113281 7.35970703 -4.23226562 7.90691406 -4.73828125 8.47070312 C-7.31729955 11.30762325 -9.80629194 13.83284096 -13 16 C-13 13 -13 13 -10.91796875 10.87890625 C-10.01691406 10.11449219 -9.11585938 9.35007812 -8.1875 8.5625 C-5.05106021 5.8877007 -2.33641601 3.40759677 0 0 Z " fill="#B7B6B7" transform="translate(563,837)"/>
<path d="M0 0 C0.99 0.66 1.98 1.32 3 2 C3 6 3 6 1 9 C0.01 9 -0.98 9 -2 9 C-2.66 7.02 -3.32 5.04 -4 3 C-2.68 2.01 -1.36 1.02 0 0 Z " fill="#2B2B2B" transform="translate(527,865)"/>
<path d="M0 0 C-1.43561686 3.18706942 -3.20266329 5.62169105 -5.5 8.25 C-6.1084375 8.95640625 -6.716875 9.6628125 -7.34375 10.390625 C-9 12 -9 12 -11 12 C-10.44040477 8.17753412 -8.78682643 6.41028259 -6.0625 3.75 C-5.35222656 3.04359375 -4.64195312 2.3371875 -3.91015625 1.609375 C-2 0 -2 0 0 0 Z " fill="#2B2A2C" transform="translate(546,826)"/>
<path d="M0 0 C0 3.91021768 -1.29087428 4.95334196 -3.75 7.9375 C-4.79414062 9.21947266 -4.79414062 9.21947266 -5.859375 10.52734375 C-7.82031699 12.79244645 -9.85115586 14.91407247 -12 17 C-11.63174813 11.91057027 -8.83539792 9.17872345 -5.4375 5.6875 C-4.65729492 4.86282227 -4.65729492 4.86282227 -3.86132812 4.02148438 C-2.58291183 2.67269654 -1.29260567 1.33519564 0 0 Z " fill="#343333" transform="translate(578,795)"/>
<path d="M0 0 C0.99 0.33 1.98 0.66 3 1 C1.74151422 3.0087944 0.46948954 5.00629298 -0.8125 7 C-1.87404297 8.670625 -1.87404297 8.670625 -2.95703125 10.375 C-3.63121094 11.24125 -4.30539062 12.1075 -5 13 C-5.99 13 -6.98 13 -8 13 C-6.53181332 9.89257577 -4.79975 7.09528261 -2.875 4.25 C-2.33617187 3.45078125 -1.79734375 2.6515625 -1.2421875 1.828125 C-0.62730469 0.92320312 -0.62730469 0.92320312 0 0 Z " fill="#191A1A" transform="translate(630,747)"/>
<path d="M0 0 C0 3.56669692 -0.91427943 5.06094631 -2.6875 8.125 C-3.18636719 9.01445313 -3.68523438 9.90390625 -4.19921875 10.8203125 C-6 13 -6 13 -8.70703125 13.8046875 C-9.46371094 13.86914062 -10.22039062 13.93359375 -11 14 C-7.46386286 9.21224044 -3.85516296 4.53548584 0 0 Z " fill="#363737" transform="translate(520,743)"/>
<path d="M0 0 C-1.24976756 3.65316671 -1.67098753 4.78065836 -5 7 C-5.99 7 -6.98 7 -8 7 C-10.15028304 7.94978897 -10.15028304 7.94978897 -12 9 C-11.0919838 7.86800647 -10.17316174 6.74467637 -9.25 5.625 C-8.73953125 4.99851562 -8.2290625 4.37203125 -7.703125 3.7265625 C-5.40193949 1.3937093 -3.32507703 0 0 0 Z " fill="#1E1E1F" transform="translate(483,778)"/>
<path d="M0 0 C0.66 0.33 1.32 0.66 2 1 C0.50902342 4.7952131 -1.75700849 6.61042731 -5 9 C-5.66 8.34 -6.32 7.68 -7 7 C-6.34 6.34 -5.68 5.68 -5 5 C-5.33 4.34 -5.66 3.68 -6 3 C-4.03533587 1.93224776 -2.03144641 0.93446535 0 0 Z " fill="#191818" transform="translate(471,822)"/>
<path d="M0 0 C0.6328125 1.8046875 0.6328125 1.8046875 1 4 C-1.86287501 8.2101103 -3.98169616 10.5661989 -9 12 C-7.55575365 8.76138697 -5.74227753 6.38030837 -3.375 3.75 C-2.74335937 3.04359375 -2.11171875 2.3371875 -1.4609375 1.609375 C-0.97882812 1.07828125 -0.49671875 0.5471875 0 0 Z " fill="#4B4B4B" transform="translate(598,799)"/>
<path d="M0 0 C0.66 0.33 1.32 0.66 2 1 C1.61328125 1.44730469 1.2265625 1.89460937 0.828125 2.35546875 C0.30734375 2.96003906 -0.2134375 3.56460938 -0.75 4.1875 C-1.29914063 4.82300781 -1.84828125 5.45851563 -2.4140625 6.11328125 C-3.70889671 7.65368747 -4.92889274 9.25673724 -6.125 10.875 C-8.18805569 13.21312978 -9.05340972 13.42535376 -12 14 C-8.34161026 8.88863277 -4.55388068 4.33702922 0 0 Z " fill="#E9E8E9" transform="translate(497,791)"/>
<path d="M0 0 C0.8549316 2.39380848 1.13510967 3.61100293 0.2890625 6.046875 C-1.13517643 8.20481277 -2.62385331 9.61943603 -4.625 11.25 C-5.25664062 11.77078125 -5.88828125 12.2915625 -6.5390625 12.828125 C-7.02117187 13.21484375 -7.50328125 13.6015625 -8 14 C-6.6744419 10.37723685 -5.05653045 7.36494652 -2.875 4.1875 C-2.33617187 3.39730469 -1.79734375 2.60710938 -1.2421875 1.79296875 C-0.83226562 1.20128906 -0.42234375 0.60960937 0 0 Z " fill="#DDDCDE" transform="translate(477,774)"/>
<path d="M0 0 C0.99 0.33 1.98 0.66 3 1 C1.19587357 4.26460973 0.16605307 5.88929795 -3 8 C-3.12375 7.360625 -3.2475 6.72125 -3.375 6.0625 C-3.684375 5.0415625 -3.684375 5.0415625 -4 4 C-4.66 3.67 -5.32 3.34 -6 3 C-3 1 -3 1 -1 1 C-0.67 0.67 -0.34 0.34 0 0 Z " fill="#E4E4E5" transform="translate(491,773)"/>
<path d="M0 0 C0.33 0.99 0.66 1.98 1 3 C-0.14453125 4.82421875 -0.14453125 4.82421875 -1.8125 6.6875 C-2.35519531 7.31011719 -2.89789062 7.93273437 -3.45703125 8.57421875 C-5 10 -5 10 -7 10 C-6.35341074 6.50841798 -5.03960471 3.9025144 -3 1 C-2.01 0.67 -1.02 0.34 0 0 Z " fill="#151514" transform="translate(542,748)"/>
<path d="M0 0 C0.66 0.33 1.32 0.66 2 1 C1.67 1.99 1.34 2.98 1 4 C-0.8125 4.765625 -0.8125 4.765625 -3 5.25 C-3.721875 5.42015625 -4.44375 5.5903125 -5.1875 5.765625 C-5.785625 5.84296875 -6.38375 5.9203125 -7 6 C-7.33 5.67 -7.66 5.34 -8 5 C-9.32594105 4.63837971 -10.65938457 4.30271961 -12 4 C-8 2.66666667 -4 1.33333333 0 0 Z " fill="#C0C0C0" transform="translate(404,921)"/>
<path d="M0 0 C-1.12436254 3.37308761 -2.07342733 4.15123097 -4.75 6.375 C-7.99668841 9.12534216 -11.03905179 11.94652216 -14 15 C-14.66 14.67 -15.32 14.34 -16 14 C-13.71643754 11.65861457 -11.42186626 9.32833018 -9.125 7 C-8.47402344 6.33226562 -7.82304688 5.66453125 -7.15234375 4.9765625 C-6.52714844 4.34492187 -5.90195312 3.71328125 -5.2578125 3.0625 C-4.6817627 2.47597656 -4.10571289 1.88945313 -3.51220703 1.28515625 C-2 0 -2 0 0 0 Z " fill="#222223" transform="translate(574,822)"/>
<path d="M0 0 C1.32 0.66 2.64 1.32 4 2 C2.02 4.97 2.02 4.97 0 8 C-1.32 7.01 -2.64 6.02 -4 5 C-2.68 3.35 -1.36 1.7 0 0 Z " fill="#202020" transform="translate(489,780)"/>
<path d="M0 0 C0 0.66 0 1.32 0 2 C0.66 2.33 1.32 2.66 2 3 C-0.6875 4.25 -0.6875 4.25 -4 5 C-6.875 3.125 -6.875 3.125 -9 1 C-5.92677456 0.08941469 -3.19902639 -0.08886184 0 0 Z " fill="#0E0E0E" transform="translate(408,925)"/>
<path d="M0 0 C0.66 0.33 1.32 0.66 2 1 C0.375 6.75 0.375 6.75 -3 9 C-4.32 8.01 -5.64 7.02 -7 6 C-4.69 4.02 -2.38 2.04 0 0 Z " fill="#1F1E1F" transform="translate(468,835)"/>
<path d="M0 0 C-1.78174788 2.30142435 -3.16304165 3.80034391 -6.046875 4.48828125 C-8.0246611 4.72323102 -10.01271872 4.86751458 -12 5 C-12 4.34 -12 3.68 -12 3 C-10.3789897 2.30314502 -8.75303934 1.61777139 -7.125 0.9375 C-6.22007812 0.55464844 -5.31515625 0.17179688 -4.3828125 -0.22265625 C-2 -1 -2 -1 0 0 Z " fill="#B9B9B9" transform="translate(413,928)"/>
<path d="M0 0 C0.66 0.33 1.32 0.66 2 1 C0.50902342 4.7952131 -1.75700849 6.61042731 -5 9 C-5.66 8.34 -6.32 7.68 -7 7 C-4.69 4.69 -2.38 2.38 0 0 Z " fill="#1D1D1D" transform="translate(546,850)"/>
<path d="M0 0 C0.33 0.99 0.66 1.98 1 3 C-0.75 6.1875 -0.75 6.1875 -3 9 C-3.99 9 -4.98 9 -6 9 C-6.99 9.495 -6.99 9.495 -8 10 C-6.34908222 5.70761377 -3.26245434 3.1206085 0 0 Z " fill="#262626" transform="translate(565,810)"/>
<path d="M0 0 C0.33 0 0.66 0 1 0 C1 3.96 1 7.92 1 12 C0.01 12 -0.98 12 -2 12 C-2 9.03 -2 6.06 -2 3 C-1.34 3 -0.68 3 0 3 C0 2.01 0 1.02 0 0 Z " fill="#EBECEC" transform="translate(902,301)"/>
<path d="M0 0 C0.66 0.33 1.32 0.66 2 1 C1.34 1.66 0.68 2.32 0 3 C0.33 3.66 0.66 4.32 1 5 C-3.95 6.485 -3.95 6.485 -9 8 C-6.14723863 5.06799526 -3.34920216 2.35684596 0 0 Z " fill="#DCDCDD" transform="translate(426,858)"/>
<path d="M0 0 C0.33 1.32 0.66 2.64 1 4 C-0.59576199 5.50893816 -2.20189911 7.00691076 -3.8125 8.5 C-4.70582031 9.3353125 -5.59914063 10.170625 -6.51953125 11.03125 C-9 13 -9 13 -12 13 C-11.21753906 12.22914063 -10.43507813 11.45828125 -9.62890625 10.6640625 C-8.60663943 9.65117427 -7.58451119 8.63814616 -6.5625 7.625 C-6.04623047 7.11710938 -5.52996094 6.60921875 -4.99804688 6.0859375 C-2.142867 3.31431064 -2.142867 3.31431064 0 0 Z " fill="#D8D7D8" transform="translate(514,786)"/>
<path d="M0 0 C0.66 0.33 1.32 0.66 2 1 C0.90902202 2.84121215 -0.19819251 4.67281256 -1.3125 6.5 C-2.23482422 8.03140625 -2.23482422 8.03140625 -3.17578125 9.59375 C-3.77777344 10.3878125 -4.37976563 11.181875 -5 12 C-5.99 12 -6.98 12 -8 12 C-6.59023295 8.96147295 -4.91129772 6.4060405 -2.875 3.75 C-2.06675781 2.69039062 -2.06675781 2.69039062 -1.2421875 1.609375 C-0.83226562 1.07828125 -0.42234375 0.5471875 0 0 Z " fill="#3D3D3D" transform="translate(520,756)"/>
<path d="M0 0 C0 4.03381023 -1.59573562 5.49433637 -4 8.6875 C-4.7425 9.68136719 -5.485 10.67523437 -6.25 11.69921875 C-7.11625 12.83810547 -7.11625 12.83810547 -8 14 C-8.66 13.67 -9.32 13.34 -10 13 C-8.48446596 9.52224821 -6.4226544 7.0442016 -3.875 4.25 C-3.15054687 3.45078125 -2.42609375 2.6515625 -1.6796875 1.828125 C-0.84824219 0.92320312 -0.84824219 0.92320312 0 0 Z " fill="#403F3F" transform="translate(502,753)"/>
<path d="M0 0 C0.66 0 1.32 0 2 0 C1.5206753 4.31392226 0.2542015 6.16569547 -3 9 C-3.99 8.67 -4.98 8.34 -6 8 C-5.04956626 6.66102417 -4.08940853 5.32894573 -3.125 4 C-2.59132813 3.2575 -2.05765625 2.515 -1.5078125 1.75 C-1.01023437 1.1725 -0.51265625 0.595 0 0 Z " fill="#282828" transform="translate(558,723)"/>
<path d="M0 0 C0.66 0.99 1.32 1.98 2 3 C0.35 5.97 -1.3 8.94 -3 12 C-3.99 11.67 -4.98 11.34 -6 11 C-4.02 7.37 -2.04 3.74 0 0 Z " fill="#1C1C1D" transform="translate(782,522)"/>
<path d="M0 0 C0.598125 0.20625 1.19625 0.4125 1.8125 0.625 C1.8125 1.285 1.8125 1.945 1.8125 2.625 C-1.41541555 4.7769437 -2.47150809 4.82586443 -6.1875 4.625 C-5.03076352 1.15479057 -3.91311293 -0.67081936 0 0 Z " fill="#F1F1F1" transform="translate(420.1875,876.375)"/>
<path d="M0 0 C2 1 2 1 3 3 C1.8125 4.5 1.8125 4.5 0 6 C-2.6875 6.1875 -2.6875 6.1875 -5 6 C-4.34 5.67 -3.68 5.34 -3 5 C-2.835 4.34 -2.67 3.68 -2.5 3 C-2.335 2.34 -2.17 1.68 -2 1 C-1.34 0.67 -0.68 0.34 0 0 Z " fill="#E4E3E4" transform="translate(431,918)"/>
<path d="M0 0 C0.66 0.33 1.32 0.66 2 1 C1.67 1.99 1.34 2.98 1 4 C-1.5625 5.1875 -1.5625 5.1875 -4 6 C-4.33 4.68 -4.66 3.36 -5 2 C-2.625 0.9375 -2.625 0.9375 0 0 Z " fill="#131312" transform="translate(481,864)"/>
<path d="M0 0 C0.33 0.99 0.66 1.98 1 3 C-0.65 4.65 -2.3 6.3 -4 8 C-4.99 7.67 -5.98 7.34 -7 7 C-2.25 1.125 -2.25 1.125 0 0 Z " fill="#DAD9D9" transform="translate(546,828)"/>
<path d="M0 0 C0.66 1.32 1.32 2.64 2 4 C0.35 5.65 -1.3 7.3 -3 9 C-3.33 8.01 -3.66 7.02 -4 6 C-3.01 6 -2.02 6 -1 6 C-1 5.34 -1 4.68 -1 4 C-1.99 3.67 -2.98 3.34 -4 3 C-2.68 2.01 -1.36 1.02 0 0 Z " fill="#E6E6E6" transform="translate(479,820)"/>
<path d="M0 0 C0.99 0.33 1.98 0.66 3 1 C3 2.32 3 3.64 3 5 C-0.75 6.125 -0.75 6.125 -3 5 C-1.125 1.125 -1.125 1.125 0 0 Z " fill="#0A0A0A" transform="translate(460,878)"/>
<path d="M0 0 C2.625 0.375 2.625 0.375 5 1 C3.35 2.65 1.7 4.3 0 6 C-0.66 4.68 -1.32 3.36 -2 2 C-1.34 1.34 -0.68 0.68 0 0 Z " fill="#0F0E0F" transform="translate(530,862)"/>
<path d="M0 0 C0.66 0.99 1.32 1.98 2 3 C1.01 4.485 1.01 4.485 0 6 C-0.66 6 -1.32 6 -2 6 C-2.309375 6.61875 -2.61875 7.2375 -2.9375 7.875 C-3.625 9.25 -4.3125 10.625 -5 12 C-5.66 11.67 -6.32 11.34 -7 11 C-4.69 7.37 -2.38 3.74 0 0 Z " fill="#DFDEDF" transform="translate(554,733)"/>
<path d="M0 0 C0.5534764 2.07553648 1 3.84365964 1 6 C-3.455 7.485 -3.455 7.485 -8 9 C-3.25 4.125 -3.25 4.125 -1 3 C-0.67 2.01 -0.34 1.02 0 0 Z " fill="#D1CFD1" transform="translate(400,884)"/>
<path d="M0 0 C1.65 0 3.3 0 5 0 C5 3 5 3 3.5 4.6875 C3.005 5.120625 2.51 5.55375 2 6 C1.01 5.67 0.02 5.34 -1 5 C-0.67 3.35 -0.34 1.7 0 0 Z " fill="#F3F3F3" transform="translate(401,883)"/>
<path d="M0 0 C0.78375 0.04125 1.5675 0.0825 2.375 0.125 C2.375 1.115 2.375 2.105 2.375 3.125 C1.385 3.785 0.395 4.445 -0.625 5.125 C-1.945 4.135 -3.265 3.145 -4.625 2.125 C-2.625 0.125 -2.625 0.125 0 0 Z " fill="#1F1F1F" transform="translate(535.625,858.875)"/>
<path d="M0 0 C-0.7115625 0.680625 -0.7115625 0.680625 -1.4375 1.375 C-3.09027808 2.93258204 -3.09027808 2.93258204 -4 5 C-4.99 5 -5.98 5 -7 5 C-7 4.34 -7 3.68 -7 3 C-7.99 2.67 -8.98 2.34 -10 2 C-8.71211992 1.46987262 -7.41953322 0.9511671 -6.125 0.4375 C-5.40570313 0.14746094 -4.68640625 -0.14257812 -3.9453125 -0.44140625 C-2 -1 -2 -1 0 0 Z " fill="#3C3C3C" transform="translate(416,921)"/>
<path d="M0 0 C2.3125 1.5 2.3125 1.5 4 3 C2.125 4.0625 2.125 4.0625 0 5 C-0.66 4.67 -1.32 4.34 -2 4 C-2 3.34 -2 2.68 -2 2 C-3.98 2 -5.96 2 -8 2 C-4.74236778 -0.17175481 -3.77560787 -0.46043998 0 0 Z " fill="#D1D1D1" transform="translate(387,911)"/>
<path d="M0 0 C0.99 1.32 1.98 2.64 3 4 C-0.37817425 4.84454356 -2.67465243 5.10844919 -6 4 C-4.02 2.68 -2.04 1.36 0 0 Z " fill="#1F1E1F" transform="translate(475,867)"/>
<path d="M0 0 C0 3 0 3 -1.53125 4.82421875 C-2.1809375 5.43910156 -2.830625 6.05398438 -3.5 6.6875 C-4.1496875 7.31011719 -4.799375 7.93273437 -5.46875 8.57421875 C-5.9740625 9.04472656 -6.479375 9.51523437 -7 10 C-7.33 9.01 -7.66 8.02 -8 7 C-5.36 4.69 -2.72 2.38 0 0 Z " fill="#3A393A" transform="translate(493,805)"/>
<path d="M0 0 C0.66 0.33 1.32 0.66 2 1 C0.84826645 3.46800047 -0.04783565 5.04783565 -2 7 C-2.99 6.67 -3.98 6.34 -5 6 C-3.35 4.02 -1.7 2.04 0 0 Z " fill="#0D0C0B" transform="translate(476,783)"/>
<path d="M0 0 C0 0.66 0 1.32 0 2 C-1.75 3.5078125 -1.75 3.5078125 -4 5.125 C-4.7425 5.66382813 -5.485 6.20265625 -6.25 6.7578125 C-6.8275 7.16773438 -7.405 7.57765625 -8 8 C-8.66 7.67 -9.32 7.34 -10 7 C-8.71372289 5.82739389 -7.42080217 4.6620717 -6.125 3.5 C-5.04605469 2.52546875 -5.04605469 2.52546875 -3.9453125 1.53125 C-2 0 -2 0 0 0 Z " fill="#C8C8C9" transform="translate(463,826)"/>
<path d="M0 0 C0.66 0.99 1.32 1.98 2 3 C1.67 3.66 1.34 4.32 1 5 C0.34 5 -0.32 5 -1 5 C-1.33 6.65 -1.66 8.3 -2 10 C-2.99 9.67 -3.98 9.34 -5 9 C-3.35 6.03 -1.7 3.06 0 0 Z " fill="#1B1B1C" transform="translate(788,512)"/>
<path d="M0 0 C0.66 0.33 1.32 0.66 2 1 C1.01 1.66 0.02 2.32 -1 3 C-1 3.66 -1 4.32 -1 5 C-2.98 5 -4.96 5 -7 5 C-4.63707344 2.47411298 -3.33537489 1.11179163 0 0 Z " fill="#2E2E2E" transform="translate(394,912)"/>
<path d="M0 0 C-0.33 1.32 -0.66 2.64 -1 4 C-2.98 4 -4.96 4 -7 4 C-6.67 3.01 -6.34 2.02 -6 1 C-3 0 -3 0 0 0 Z " fill="#212121" transform="translate(429,908)"/>
<path d="M0 0 C0 3 0 3 -2 6 C-2.63292383 8.11280345 -2.63292383 8.11280345 -3 10 C-3.33 9.01 -3.66 8.02 -4 7 C-4.66 6.67 -5.32 6.34 -6 6 C-4.02 4.02 -2.04 2.04 0 0 Z " fill="#515051" transform="translate(528,847)"/>
<path d="M0 0 C-0.39803561 2.88575819 -0.79009069 3.82189513 -3.0625 5.75 C-3.701875 6.1625 -4.34125 6.575 -5 7 C-5.33 6.01 -5.66 5.02 -6 4 C-2.25 0 -2.25 0 0 0 Z " fill="#070808" transform="translate(529,844)"/>
<path d="M0 0 C0.66 0.66 1.32 1.32 2 2 C0.02 3.98 -1.96 5.96 -4 8 C-4.66 7.67 -5.32 7.34 -6 7 C-4.02 4.69 -2.04 2.38 0 0 Z " fill="#B1B1B2" transform="translate(462,803)"/>
<path d="M0 0 C0 0.99 0 1.98 0 3 C-0.99 3.66 -1.98 4.32 -3 5 C-4.32 4.34 -5.64 3.68 -7 3 C-3.375 0 -3.375 0 0 0 Z " fill="#F2F2F2" transform="translate(478,790)"/>
<path d="M0 0 C-0.39803561 2.88575819 -0.79009069 3.82189513 -3.0625 5.75 C-3.701875 6.1625 -4.34125 6.575 -5 7 C-5.33 6.01 -5.66 5.02 -6 4 C-2.25 0 -2.25 0 0 0 Z " fill="#100F10" transform="translate(496,790)"/>
<path d="M0 0 C2.25 0.25 2.25 0.25 4 1 C3.360625 1.268125 2.72125 1.53625 2.0625 1.8125 C-0.33131686 2.88667752 -0.33131686 2.88667752 -1 6 C-1.99 5.34 -2.98 4.68 -4 4 C-2.25 1.9375 -2.25 1.9375 0 0 Z " fill="#E6E6E7" transform="translate(488,788)"/>
<path d="M0 0 C0.99 1.32 1.98 2.64 3 4 C1.1875 5.0625 1.1875 5.0625 -1 6 C-1.99 5.67 -2.98 5.34 -4 5 C-2.68 3.35 -1.36 1.7 0 0 Z " fill="#262526" transform="translate(498,783)"/>
<path d="M0 0 C0 0.99 0 1.98 0 3 C-3.303314 3.88935377 -6.62294375 4.46274105 -10 5 C-3.63636364 0 -3.63636364 0 0 0 Z " fill="#454445" transform="translate(435,922)"/>
<path d="M0 0 C2 1 2 1 3 3 C1.68 4.32 0.36 5.64 -1 7 C-2 4 -2 4 -1.0625 1.8125 C-0.5365625 0.9153125 -0.5365625 0.9153125 0 0 Z " fill="#222222" transform="translate(548,828)"/>
<path d="M0 0 C0.33 0.99 0.66 1.98 1 3 C0.360625 3.268125 -0.27875 3.53625 -0.9375 3.8125 C-3.33131686 4.88667752 -3.33131686 4.88667752 -4 8 C-4.33 7.01 -4.66 6.02 -5 5 C-3.35 3.35 -1.7 1.7 0 0 Z " fill="#141414" transform="translate(623,759)"/>
<path d="M0 0 C0.86325845 2.41712366 1.1132654 3.64990694 0.3125 6.125 C-1.2190732 8.31296172 -2.54765115 9.01906046 -5 10 C-3.66511872 6.40608886 -2.03977277 3.24509304 0 0 Z " fill="#E9E9EA" transform="translate(569,710)"/>
<path d="M0 0 C1 3 1 3 0.22265625 4.82421875 C-0.8515625 6.54947917 -1.92578125 8.27473958 -3 10 C-3.66 10 -4.32 10 -5 10 C-3.66511872 6.40608886 -2.03977277 3.24509304 0 0 Z " fill="#232324" transform="translate(889,339)"/>
<path d="M0 0 C-0.33 0.99 -0.66 1.98 -1 3 C-2.65 3 -4.3 3 -6 3 C-6 3.66 -6 4.32 -6 5 C-7.65 5 -9.3 5 -11 5 C-7.72709962 2.33319229 -4.35126896 0 0 0 Z " fill="#C5C6C6" transform="translate(791,294)"/>
<path d="M0 0 C2.64 0.66 5.28 1.32 8 2 C6 4 6 4 2.375 4.125 C1.26125 4.08375 0.1475 4.0425 -1 4 C-0.67 2.68 -0.34 1.36 0 0 Z " fill="#151515" transform="translate(421,910)"/>
<path d="M0 0 C-0.33 0.66 -0.66 1.32 -1 2 C-2.98 2 -4.96 2 -7 2 C-7.33 1.34 -7.66 0.68 -8 0 C-4.71023192 -1.09658936 -3.28696233 -0.79953138 0 0 Z " fill="#F3F3F3" transform="translate(395,911)"/>
<path d="M0 0 C-1.36983503 3.16115776 -1.9890638 3.9927092 -5 6 C-5.33 5.01 -5.66 4.02 -6 3 C-3.375 0 -3.375 0 0 0 Z " fill="#0C0C0C" transform="translate(531,849)"/>
<path d="M0 0 C2 3 2 3 1.625 5.1875 C1.41875 5.785625 1.2125 6.38375 1 7 C0.34 7 -0.32 7 -1 7 C-1.33 7.99 -1.66 8.98 -2 10 C-1.46274105 6.62294375 -0.88935377 3.303314 0 0 Z " fill="#C7C6C8" transform="translate(728,811)"/>
<path d="M0 0 C1.32 0.66 2.64 1.32 4 2 C2.68 3.32 1.36 4.64 0 6 C0 5.01 0 4.02 0 3 C-0.66 2.67 -1.32 2.34 -2 2 C-1.34 1.34 -0.68 0.68 0 0 Z " fill="#E2E1E1" transform="translate(470,806)"/>
<path d="M0 0 C0.66 0.99 1.32 1.98 2 3 C0.71034824 4.37562854 -0.62689293 5.70766393 -2 7 C-2.66 7 -3.32 7 -4 7 C-2.79618552 4.50638429 -1.54571278 2.31856917 0 0 Z " fill="#262625" transform="translate(626,753)"/>
<path d="M0 0 C0.66 0.99 1.32 1.98 2 3 C1.34 3 0.68 3 0 3 C-0.66 4.32 -1.32 5.64 -2 7 C-2.99 7 -3.98 7 -5 7 C-3.35 4.69 -1.7 2.38 0 0 Z " fill="#DAD9DA" transform="translate(541,752)"/>
<path d="M0 0 C0.66 0.33 1.32 0.66 2 1 C2 1.99 2 2.98 2 4 C0.02 4.99 0.02 4.99 -2 6 C-2 5.01 -2 4.02 -2 3 C-2.66 2.67 -3.32 2.34 -4 2 C-2.125 0.9375 -2.125 0.9375 0 0 Z " fill="#CFCFD0" transform="translate(427,920)"/>
<path d="M0 0 C0.99 0.33 1.98 0.66 3 1 C2.34 2.32 1.68 3.64 1 5 C0.01 4.67 -0.98 4.34 -2 4 C-2 3.01 -2 2.02 -2 1 C-1.34 0.67 -0.68 0.34 0 0 Z " fill="#FAFAFA" transform="translate(435,917)"/>
<path d="M0 0 C0.66 0.33 1.32 0.66 2 1 C2 1.66 2 2.32 2 3 C0 4.625 0 4.625 -2 6 C-2 5.34 -2 4.68 -2 4 C-2.99 3.67 -3.98 3.34 -5 3 C-2.625 1.4375 -2.625 1.4375 0 0 Z " fill="#515151" transform="translate(445,874)"/>
<path d="M0 0 C0.33 0.66 0.66 1.32 1 2 C-1.64 3.98 -4.28 5.96 -7 8 C-6 4 -6 4 -2.9375 1.75 C-1.968125 1.1725 -0.99875 0.595 0 0 Z " fill="#313131" transform="translate(496,852)"/>
<path d="M0 0 C0.99 0.66 1.98 1.32 3 2 C1.35 3.32 -0.3 4.64 -2 6 C-2 2 -2 2 0 0 Z " fill="#0E0D0D" transform="translate(471,854)"/>
<path d="M0 0 C0.33 1.32 0.66 2.64 1 4 C-0.9375 6.75 -0.9375 6.75 -3 9 C-3.66 8.67 -4.32 8.34 -5 8 C-3.35 5.36 -1.7 2.72 0 0 Z " fill="#E9E8E9" transform="translate(562,721)"/>
<path d="M0 0 C0.66 0.33 1.32 0.66 2 1 C0.02 3.31 -1.96 5.62 -4 8 C-4.66 7.34 -5.32 6.68 -6 6 C-4.02 4.02 -2.04 2.04 0 0 Z " fill="#E4E3E4" transform="translate(756,313)"/>
<path d="M0 0 C0 0.33 0 0.66 0 1 C-7.38461538 3.21538462 -7.38461538 3.21538462 -10.5 2.125 C-10.995 1.75375 -11.49 1.3825 -12 1 C-8.0186217 -0.3271261 -4.14954773 -0.06915913 0 0 Z " fill="#B9B9B9" transform="translate(814,289)"/>
</svg>
